<svg width="4000" height="2238" viewBox="0 0 4000 2238" fill="none" xmlns="http://www.w3.org/2000/svg">
<path d="M1929.47 469.094C1921.7 469.671 1910.62 471.249 1903.5 472.749C1877.38 478.288 1844.87 490.714 1817.83 505.563C1815.64 506.756 1812.17 508.641 1810.13 509.795C1805.33 512.411 1791.63 520.451 1785.4 524.259C1750.74 545.571 1711.11 576.539 1688.11 600.275C1676.84 611.854 1672.3 618.279 1668.45 628.011C1667.76 629.819 1666.99 631.204 1666.68 631.204C1666.41 631.204 1665.18 630.743 1663.95 630.204C1658.68 627.857 1646.99 623.818 1639.02 621.587C1619.56 616.163 1597.75 614.816 1579.59 617.971C1567.97 619.971 1558.54 623.203 1548.5 628.55C1534.5 636.013 1520.27 649.477 1510.03 664.942C1494.3 688.755 1484.15 717.607 1477.61 756.999C1477.14 759.846 1476.53 762.577 1476.22 763.039C1475.72 763.885 1475.49 763.924 1470.41 763.924C1455.68 763.962 1445.1 767.501 1432.13 776.696C1420.94 784.697 1410.09 797.431 1401.13 813.049C1384.7 841.786 1374.24 876.024 1368.62 919.725C1368.31 922.148 1367.93 925.457 1367.81 927.034C1367.66 928.611 1367.39 931.227 1367.2 932.804C1366.12 941.652 1365.31 959.771 1365.31 975.313C1365.35 1003.7 1367.28 1030.09 1371.28 1056.87C1372.7 1066.37 1374.66 1078.76 1375.32 1082.64C1375.74 1084.95 1376.43 1089.11 1376.85 1091.88C1377.28 1094.61 1377.89 1098.26 1378.2 1099.95C1378.47 1101.65 1378.85 1103.8 1378.97 1104.76C1379.32 1107.22 1384.09 1134 1384.93 1138.23C1385.12 1139.19 1386.01 1144.04 1386.86 1149C1392.28 1179.82 1400.47 1217.98 1404.51 1231.13C1404.9 1232.4 1405.86 1235.67 1406.67 1238.44C1407.44 1241.18 1408.32 1244.14 1408.59 1244.98C1408.9 1245.83 1409.82 1248.87 1410.71 1251.72C1420.13 1282.22 1431.87 1307.42 1444.48 1324.23C1456.29 1340 1469.07 1351.66 1483.41 1359.85C1502.15 1370.55 1522.42 1375.82 1547.85 1376.55C1552.08 1376.7 1555.93 1376.86 1556.39 1376.97C1557.01 1377.09 1557.85 1378.32 1559.62 1381.67C1567.62 1396.82 1572.12 1404.44 1579.13 1414.83C1593.51 1436.14 1605.98 1449.37 1621.9 1460.3C1630.33 1466.07 1641.91 1472.34 1648.64 1474.76C1657.72 1477.99 1664.34 1479.22 1672.88 1479.19C1681.84 1479.15 1687.42 1477.88 1695.19 1474.07C1701.23 1471.11 1704.77 1468.57 1710 1463.3C1717.27 1456.07 1721.96 1449.76 1727.08 1440.33C1733.81 1427.98 1737.93 1416.4 1742.31 1397.59C1743.12 1394.13 1743.85 1391.21 1743.97 1391.09C1744.43 1390.67 1744.93 1391.47 1745.93 1394.21C1748.2 1400.63 1754.93 1414.86 1758.89 1421.6C1764.47 1431.14 1769.43 1437.06 1786.44 1454.68C1792.21 1460.6 1797.32 1465.76 1797.86 1466.11C1798.75 1466.72 1799.52 1468.14 1799.13 1468.53C1799.06 1468.64 1797.06 1468.88 1794.75 1469.07C1787.78 1469.61 1783.05 1471.11 1779.24 1473.91C1775.47 1476.68 1775.32 1477.18 1769.63 1503.5C1769.2 1505.38 1768.2 1510 1767.36 1513.69C1765.28 1522.85 1762.47 1535.43 1761.55 1539.85C1761.09 1541.85 1760.43 1544.97 1760.01 1546.78C1759.62 1548.58 1759.01 1551.43 1758.62 1553.12C1757.93 1556.43 1756.47 1562.86 1755.59 1566.59C1755.28 1567.86 1754.39 1571.74 1753.66 1575.24C1752.2 1581.94 1749.97 1591.9 1749.05 1595.9C1747.39 1602.79 1746.16 1609.4 1746.35 1610.17C1746.58 1611.1 1763.32 1632.14 1765.39 1634.1C1765.51 1634.22 1767.59 1636.72 1770.01 1639.64C1782.71 1655.03 1792.55 1665.92 1795.29 1667.61C1796.59 1668.45 1796.86 1668.45 1806.21 1668.19C1814.79 1667.95 1815.79 1667.99 1815.79 1668.53C1815.79 1668.84 1815.37 1671.3 1814.83 1673.99C1814.29 1676.65 1813.94 1679.11 1814.06 1679.46C1814.17 1679.8 1815.52 1680.84 1817.02 1681.8C1818.56 1682.73 1823.91 1686.04 1828.87 1689.11C1863.88 1710.92 1889.92 1724.08 1899.46 1724.77C1901.38 1724.89 1905.85 1724.66 1911.39 1724.16C1916.27 1723.7 1921.7 1723.35 1923.5 1723.43L1926.77 1723.54V1727.04C1926.77 1729.97 1926.89 1730.7 1927.5 1731.39C1929.7 1733.81 1947.12 1736.24 1976.98 1738.24C1991.79 1739.24 2029.99 1739.24 2039.68 1738.24C2051.99 1736.97 2057.92 1735.81 2061.65 1733.89C2064.42 1732.51 2065.46 1729.66 2065.46 1723.43C2065.46 1720.31 2065.57 1719.43 2066.03 1719.27C2066.34 1719.16 2069.92 1719.66 2074 1720.43C2084.15 1722.31 2087.23 1722.66 2092.58 1722.66C2097.81 1722.62 2100.46 1722 2108.39 1718.89C2123.51 1713 2151.36 1697.96 2174.44 1683.27C2180.86 1679.15 2181.6 1678.61 2181.83 1677.76C2181.94 1677.34 2181.36 1673.88 2180.52 1670.07C2179.71 1666.26 2179.13 1662.99 2179.29 1662.84C2179.59 1662.53 2182.21 1663.11 2192.71 1665.68C2196.18 1666.57 2199.37 1667.15 2199.87 1667.03C2201.21 1666.69 2210.06 1657.38 2219.45 1646.41C2224.07 1641.03 2228.68 1635.64 2229.68 1634.49C2232.37 1631.33 2248.69 1610.98 2249.49 1609.75C2250.38 1608.4 2250.46 1608.75 2246.61 1592.48C2244.88 1585.21 2243.26 1578.24 2242.99 1576.97C2242.38 1573.97 2238.26 1555.7 2235.3 1542.93C2234.99 1541.54 2234.26 1538.35 2233.72 1535.81C2233.14 1533.27 2232.37 1529.89 2232.03 1528.31C2231.3 1525.23 2229.45 1516.89 2224.87 1495.8C2220.72 1476.68 2220.72 1476.72 2217.6 1473.65C2214.68 1470.72 2211.1 1469.41 2201.56 1467.76L2200.1 1467.49V1464.41C2200.1 1462.72 2200.29 1460.95 2200.56 1460.49C2200.79 1460.03 2204.14 1456.53 2207.95 1452.72C2217.79 1442.95 2232.95 1426.44 2239.18 1418.67C2244.88 1411.63 2253.57 1399.4 2255.57 1395.67C2256.57 1393.78 2257.3 1394.09 2257.8 1396.67C2261.15 1414.17 2269.69 1435.79 2278.54 1449.14C2292.12 1469.64 2307.39 1478.99 2327.63 1479.15C2342.74 1479.26 2358.02 1473.68 2376.98 1461.1C2391.14 1451.68 2402.22 1440.99 2414.18 1425.02C2420.64 1416.4 2430.26 1401.4 2435.15 1392.32C2436.03 1390.63 2436.92 1389.05 2437.07 1388.86C2437.22 1388.63 2438.61 1386.01 2440.15 1382.97C2441.65 1379.97 2443.19 1377.36 2443.53 1377.16C2443.88 1377.01 2447.57 1376.74 2451.69 1376.59C2469.69 1376.01 2479.85 1374.39 2493.81 1369.89C2505.58 1366.09 2519.78 1358.55 2530.74 1350.27C2542.28 1341.54 2555.09 1326.54 2564.33 1310.84C2567.64 1305.27 2573.75 1293.11 2577.1 1285.57C2582.22 1274.07 2583.37 1271.07 2587.33 1259.02C2589.64 1252.14 2591.1 1247.29 2594.41 1235.75C2595.64 1231.52 2599.6 1215.79 2600.57 1211.52C2601.03 1209.4 2601.57 1207.13 2601.76 1206.51C2601.95 1205.86 2602.26 1204.48 2602.45 1203.44C2602.68 1202.36 2603.3 1199.59 2603.84 1197.28C2606.95 1183.93 2611.8 1159.04 2615.76 1136.31C2616.07 1134.5 2616.68 1131.11 2617.07 1128.81C2618.45 1121.11 2620.57 1108.88 2621.38 1104.38C2621.76 1101.95 2622.3 1098.99 2622.49 1097.84C2622.72 1096.68 2623.92 1089.3 2625.19 1081.49C2626.46 1073.64 2627.76 1065.68 2628.07 1063.79C2630.11 1051.67 2632.07 1035.33 2633.07 1022.63C2633.38 1018.59 2633.73 1014.44 2633.84 1013.4C2634.26 1009.44 2635.19 985.431 2635.19 978.198C2635.15 953.924 2632.8 923.841 2629.19 902.221C2628.11 895.72 2624.69 879.986 2622.49 871.446C2617.22 850.941 2607.72 827.014 2598.99 812.164C2586.49 790.929 2571.25 775.926 2554.75 768.694C2546.9 765.232 2540.32 763.924 2530.47 763.924H2524.43L2524.09 762.462C2523.9 761.692 2523.09 757.384 2522.32 752.96C2519.78 738.611 2517.32 728.34 2513.2 714.875C2501.55 676.598 2483.31 649.093 2458.92 633.012C2446.53 624.857 2435.11 620.394 2419.57 617.663C2414.99 616.855 2413.41 616.778 2401.1 616.778C2389.18 616.817 2386.94 616.894 2381.67 617.663C2367.09 619.779 2354.98 623.049 2340.01 628.781C2336.47 630.127 2333.43 631.127 2333.24 631.012C2333.05 630.897 2332.66 630.166 2332.4 629.358C2331.01 624.972 2326.59 617.432 2322.28 612.008C2319.74 608.777 2319.28 608.277 2312.35 600.813C2293.19 580.155 2252.46 547.649 2219.91 527.068C2201.95 515.681 2177.86 502.332 2163.94 495.984C2131.12 481.097 2106.46 473.403 2080.27 469.941C2071.34 468.787 2050.22 468.671 2042.95 469.787C2029.49 471.826 2018.52 475.365 2006.98 481.481C2004.33 482.866 2001.67 484.251 2001.1 484.559C2000.1 485.059 1999.83 484.982 1996.13 482.905C1984.25 476.173 1974.28 472.633 1960.05 470.171C1955.09 469.287 1953.24 469.171 1942.93 469.056C1936.58 469.017 1930.54 469.017 1929.47 469.094ZM1942.93 502.332C1958.09 503.14 1969.17 505.756 1975.86 510.064C1978.44 511.718 1978.71 512.449 1976.32 511.257C1973.86 509.987 1967.44 508.141 1962.59 507.333C1950.01 505.179 1928.39 505.717 1911.39 508.525C1866.3 516.027 1825.06 531.492 1788.28 554.65C1781.94 558.613 1780.24 559.767 1774.44 563.844C1765.47 570.115 1755.93 577.501 1749.28 583.31C1738.85 592.389 1724.16 607.584 1716 617.74C1712.77 621.779 1703.96 633.628 1702.65 635.705C1702.34 636.205 1701.96 636.59 1701.8 636.59C1701.27 636.59 1706.31 627.319 1709.5 622.472C1719.46 607.353 1729.2 595.466 1741.58 583.31C1753.05 572.077 1764.05 562.883 1775.74 554.843C1777.28 553.765 1779.24 552.381 1780.13 551.727C1789.09 545.225 1808.37 534.454 1822.44 528.145C1859.8 511.411 1896.92 502.678 1933.51 502.024C1935.08 501.986 1939.35 502.139 1942.93 502.332ZM2087.38 503.101C2103.93 504.871 2115.89 507.217 2135.47 512.565C2139.89 513.796 2151.82 517.72 2156.05 519.335C2173.09 525.914 2184.67 531.145 2196.44 537.531C2223.18 552.111 2248.3 571.538 2267.57 592.543C2275.96 601.66 2287.85 617.663 2294.16 628.319C2296.23 631.82 2298.27 635.821 2298.04 635.821C2297.93 635.821 2295.12 632.128 2291.73 627.627C2274.19 604.122 2255.96 585.926 2232.41 568.422C2215.26 555.689 2191.64 541.84 2175.09 534.838C2173.94 534.338 2171.52 533.261 2169.71 532.415C2165.44 530.453 2155.01 526.298 2147.24 523.49C2113.35 511.257 2075.04 504.525 2048.26 506.102C2037.99 506.717 2031.56 508.025 2024.6 511.026C2022.91 511.757 2021.45 512.295 2021.37 512.218C2020.83 511.718 2027.03 508.179 2030.68 506.948C2037.18 504.678 2046.64 502.87 2054.68 502.332C2062.03 501.832 2079.23 502.255 2087.38 503.101ZM1950.16 557.882C1957.7 558.92 1966.17 561.036 1970.63 563.037C1973.4 564.229 1975.98 565.768 1975.71 566.076C1975.59 566.153 1974.17 565.806 1972.55 565.229C1965.09 562.652 1954.13 561.19 1942.47 561.19C1925.93 561.19 1911.73 562.96 1890.81 567.691C1867.26 573 1838.18 583.772 1815.02 595.736C1790.25 608.546 1768.16 623.549 1749.08 640.514C1743.39 645.592 1731.93 657.094 1725.85 663.865C1719.23 671.212 1714.88 676.637 1708.88 685.061C1703.5 692.601 1703.04 693.217 1702.81 693.025C1702.42 692.601 1708.04 682.407 1711.85 676.598C1730.7 648.092 1757.16 622.703 1789.28 602.237C1811.83 587.888 1837.99 576.039 1865.42 567.73C1868.07 566.922 1870.57 566.191 1870.99 566.076C1871.42 565.96 1873.76 565.345 1876.19 564.729C1890.42 560.959 1909.62 557.92 1923.5 557.189C1929.54 556.881 1946.09 557.305 1950.16 557.882ZM2086.04 557.882C2114.93 560.882 2148.09 570.423 2177.86 584.31C2193.48 591.581 2211.79 602.468 2226.45 613.124C2252.61 632.205 2271.34 651.516 2287.85 676.406C2291.58 681.984 2297.04 691.332 2297.04 692.063C2297.04 693.025 2296 691.832 2292.96 687.447C2285.5 676.637 2278.62 668.135 2269.31 658.171C2244.18 631.243 2209.87 606.853 2173.82 590.273C2152.01 580.271 2131.97 573.116 2112.35 568.345C2098.12 564.883 2089.92 563.383 2077.57 561.959C2068.8 560.998 2051.07 560.882 2043.45 561.767C2037.68 562.421 2030.56 563.96 2027.06 565.306C2024.29 566.345 2023.72 566.268 2025.33 565.114C2030.3 561.652 2042.87 558.42 2055.84 557.343C2061.11 556.881 2079.73 557.228 2086.04 557.882ZM1947.74 612.701C1954.93 613.585 1958.43 614.239 1963.13 615.663C1966.86 616.817 1972.4 619.279 1971.74 619.548C1971.48 619.625 1969.94 619.356 1968.28 618.933C1958.24 616.432 1951.66 615.663 1940.62 615.663C1909 615.663 1872.57 624.626 1833.87 641.976C1823.29 646.746 1806.63 655.709 1796.36 662.172C1771.97 677.521 1754.55 691.255 1737.7 708.374C1724.85 721.454 1716.35 731.84 1706.77 746.151C1702.92 751.883 1702.31 751.96 1705.15 746.266C1710.92 734.802 1721.23 719.915 1732.08 707.374C1737.2 701.449 1748.66 689.909 1754.82 684.484C1784.36 658.402 1821.68 637.052 1860.03 624.28C1877.88 618.317 1899.73 613.739 1916.58 612.354C1919.43 612.123 1922.54 611.893 1923.5 611.816C1927.7 611.47 1941.78 611.97 1947.74 612.701ZM2086.23 612.508C2110.35 615.278 2133.16 621.087 2156.74 630.512C2174.59 637.629 2186.48 643.553 2203.37 653.824C2243.68 678.329 2276.54 711.451 2294.7 745.959C2298.12 752.46 2297.16 751.806 2291.85 743.92C2265.61 705.027 2226.68 672.213 2177.79 647.708C2154.55 636.051 2133.2 628.05 2109.89 622.202C2098.31 619.317 2088.46 617.663 2073.73 616.163C2059.22 614.701 2045.26 615.663 2030.72 619.163C2029.29 619.51 2028.03 619.702 2027.91 619.587C2027.26 618.933 2036.91 615.547 2043.03 614.316C2046.64 613.585 2056.69 612.2 2061.03 611.816C2064.96 611.508 2081.19 611.97 2086.23 612.508ZM1624.21 641.437C1635.02 642.784 1648.56 647.208 1655.1 651.516C1657.14 652.901 1656.37 653.016 1653.06 651.824C1643.18 648.246 1626.25 645.861 1614.52 646.361C1591.36 647.323 1571.32 652.401 1549 662.942C1530.92 671.482 1513.46 686.446 1507.11 698.795C1506.5 699.988 1505.73 700.488 1505.73 699.68C1505.73 697.949 1509.42 690.524 1512.77 685.446C1520.69 673.559 1534.54 662.365 1550.93 654.671C1557.97 651.362 1558.16 651.247 1562.58 649.593C1576.59 644.322 1589.32 641.476 1601.9 640.822C1609.21 640.475 1618.21 640.706 1624.21 641.437ZM2403.99 641.437C2421.45 643.399 2440.11 649.439 2455.54 658.056C2470.85 666.635 2482.66 677.252 2489.35 688.485C2491.58 692.294 2495.01 699.949 2494.62 700.372C2494.35 700.603 2493.24 699.334 2492.27 697.718C2490.58 694.794 2486.35 688.947 2484.16 686.485C2470.62 671.174 2441.73 656.094 2413.99 649.9C2400.37 646.861 2381.67 645.707 2369.17 647.131C2361.17 648.054 2351.67 650.054 2346.13 651.978C2343.32 652.94 2343.32 652.94 2344.21 651.939C2345.28 650.747 2348.78 649.054 2355.13 646.707C2370.25 641.091 2385.83 639.398 2403.99 641.437ZM1940.93 666.827C1949.66 667.558 1955.47 668.52 1961.4 670.212C1966.13 671.559 1969.94 673.021 1969.59 673.328C1969.47 673.444 1967.36 673.097 1964.82 672.559C1955.24 670.597 1951.55 670.289 1937.74 670.289C1918.46 670.289 1907.81 671.713 1887.15 676.983C1840.87 688.793 1790.67 716.145 1753.55 749.767C1735.31 766.309 1721.39 782.12 1710.54 798.7C1704.88 807.279 1704.84 807.356 1704.69 807.202C1704.07 806.625 1709.23 795.969 1712.69 790.66C1713.5 789.39 1714.65 787.582 1715.23 786.621C1716.69 784.236 1723.16 775.041 1725.54 772.002C1735.7 758.923 1746.66 747.536 1760.89 735.302C1782.4 716.799 1806.63 701.257 1832.91 689.101C1850.91 680.791 1873.65 673.405 1892.54 669.712C1908.89 666.519 1925.77 665.519 1940.93 666.827ZM2084.31 666.788C2109.12 668.597 2135.16 675.213 2159.9 686.023C2183.48 696.295 2204.72 708.643 2224.53 723.531C2249.19 742.073 2270.42 764.501 2285.04 787.39C2290.81 796.469 2296.04 806.163 2295.77 807.356C2295.7 807.74 2295.08 807.048 2294.16 805.548C2283.69 788.775 2273.23 775.772 2257.84 760.461C2241.68 744.381 2229.1 734.148 2209.33 720.953C2172.67 696.525 2129.97 678.714 2093.27 672.597C2082.11 670.712 2076.54 670.289 2063.15 670.289C2049.53 670.251 2045.49 670.597 2035.07 672.713C2032.1 673.29 2029.68 673.675 2029.68 673.521C2029.68 673.213 2033.06 671.866 2036.41 670.866C2043.22 668.866 2050.18 667.635 2059.69 666.827C2067.84 666.135 2074.96 666.096 2084.31 666.788ZM1628.25 680.368C1638.95 682.33 1645.79 684.446 1652.91 687.947C1657.99 690.447 1659.68 691.601 1658.22 691.601C1657.8 691.563 1656.8 691.332 1655.95 690.986C1649.72 688.716 1640.29 686.562 1633.25 685.754C1627.37 685.1 1612.36 685.1 1606.13 685.754C1589.71 687.485 1575.93 690.832 1561.12 696.679C1543.58 703.604 1529.42 712.721 1518.38 724.185C1514.73 727.993 1510.03 734.264 1508.77 737.072C1508.5 737.688 1508.15 738.149 1507.96 738.149C1507.46 738.149 1507.61 736.918 1508.42 734.764C1512.8 723.262 1522.77 711.721 1536.5 702.296C1553.54 690.563 1572.39 683.484 1595.17 680.291C1597.51 679.945 1599.82 679.599 1600.36 679.522C1600.9 679.445 1606.44 679.406 1612.67 679.483C1622.13 679.56 1624.71 679.714 1628.25 680.368ZM2406.56 680.407C2433.65 684.831 2459.42 696.641 2475.81 712.182C2482.46 718.491 2487.58 725.454 2490.5 732.148C2493.08 738.072 2493.04 740.188 2490.47 735.726C2484.85 726.185 2477.39 718.453 2466.73 711.259C2442.38 694.794 2410.26 685.061 2380.17 685.061C2368.86 685.061 2359.48 686.446 2347.59 689.909C2344.28 690.87 2341.4 691.563 2341.13 691.486C2340.47 691.255 2343.78 689.293 2347.94 687.485C2352.63 685.446 2360.05 682.907 2363.52 682.138C2375.87 679.445 2376.75 679.33 2389.95 679.445C2399.6 679.56 2402.33 679.714 2406.56 680.407ZM2402.06 718.761C2427.61 722.146 2450 731.186 2468.54 745.651C2478.16 753.152 2486.2 763.462 2489.77 772.849C2490.2 773.964 2490.54 775.234 2490.54 775.657C2490.5 776.388 2490.5 776.388 2489.85 775.58C2489.5 775.157 2488.35 773.349 2487.27 771.618C2480.27 760.115 2467.31 749.382 2450.15 740.881C2431.88 731.84 2412.87 726.416 2392.52 724.493C2381.29 723.454 2378.56 723.415 2369.75 724.262C2360.63 725.108 2353.05 726.531 2345.05 728.917C2339.47 730.571 2338.78 730.686 2339.17 730.071C2339.97 728.763 2347.67 725.224 2355.13 722.761C2362.32 720.376 2371.25 718.684 2379.17 718.145C2385.37 717.76 2396.64 718.068 2402.06 718.761ZM1628.14 718.915C1638.68 720.453 1647.37 722.992 1654.99 726.762C1662.22 730.301 1662.72 731.109 1656.49 729.263C1646.56 726.301 1639.45 725.031 1628.25 724.146C1616.71 723.262 1604.94 724.223 1589.01 727.378C1555.39 734.11 1522 753.922 1511.69 773.349C1509.34 777.773 1508.73 778.119 1509.8 774.464C1511.04 770.079 1514.65 763.616 1519.04 757.769C1524.81 750.113 1535.89 741.188 1547.85 734.61C1561.93 726.878 1579.51 721.338 1597.67 718.915C1605.36 717.876 1621.21 717.876 1628.14 718.915ZM1944.74 721.569C1954.24 722.877 1958.01 723.685 1963.9 725.724C1968.82 727.455 1968.24 727.57 1960.63 726.416C1948.7 724.608 1947.47 724.493 1934.85 724.531C1924.5 724.531 1921.43 724.685 1915.62 725.416C1904.54 726.801 1892.19 729.032 1885.42 730.84C1867.57 735.687 1852.18 741.419 1835.95 749.305C1798.82 767.309 1766.7 790.621 1739.43 819.358C1729.35 829.976 1717.31 845.286 1711.5 854.827C1708.61 859.597 1705.27 864.714 1705.11 864.598C1705.07 864.521 1705.38 863.521 1705.81 862.367C1708.92 854.211 1717.54 839.747 1726.39 827.937C1737.97 812.434 1749.85 799.97 1767.9 784.351C1768.55 783.812 1772.01 781.043 1775.59 778.234C1799.29 759.577 1827.41 743.843 1855.41 733.533C1869.57 728.34 1889.07 723.531 1903.69 721.607C1911.92 720.53 1912 720.53 1926.2 720.646C1936.62 720.761 1940.16 720.915 1944.74 721.569ZM2095.65 721.569C2105.16 722.838 2120.62 725.954 2127.58 727.955C2137.12 730.725 2146.51 734.033 2156.44 738.149C2161.78 740.342 2178.56 748.613 2185.4 752.421C2219.91 771.656 2249.65 796.93 2272.42 826.436C2280.92 837.477 2291.35 854.596 2294.35 862.444C2294.77 863.559 2295.04 864.521 2294.96 864.598C2294.89 864.714 2294 863.406 2292.96 861.751C2282.42 844.556 2270.92 829.86 2256.65 815.319C2218.76 776.657 2168.4 746.189 2119.12 732.033C2106.77 728.493 2090.58 725.531 2078.73 724.685C2065.11 723.723 2052.26 724.339 2038.07 726.647C2035.6 727.032 2033.37 727.378 2033.1 727.378C2032.18 727.378 2033.3 726.762 2035.64 725.916C2041.76 723.8 2052.45 721.761 2062.96 720.684C2063.8 720.607 2070.23 720.607 2077.19 720.646C2087.23 720.761 2091.08 720.953 2095.65 721.569ZM1626.79 757.192C1638.64 758.73 1646.76 760.846 1655.56 764.809C1659.6 766.617 1663.49 768.963 1662.76 769.232C1662.49 769.309 1659.99 768.694 1657.18 767.848C1647.14 764.77 1641.45 763.731 1630.56 762.962C1604.86 761.115 1575.28 767.347 1550.35 779.889C1538.54 785.813 1527.04 794.122 1520.96 801.085C1518.08 804.394 1513.61 811.01 1512.5 813.742C1511.8 815.357 1511 815.28 1511.5 813.626C1513.3 807.663 1515.04 803.97 1518.38 798.931C1522.19 793.237 1529.69 786.005 1538.16 779.965C1551.54 770.348 1570.89 762.539 1590.55 758.73C1601.09 756.73 1617.56 755.999 1626.79 757.192ZM2402.83 757.73C2422.88 760.731 2440.42 766.886 2455.77 776.272C2463.96 781.273 2469.35 785.428 2474.73 790.929C2482 798.392 2485.66 804.124 2488.23 812.203C2489.12 814.896 2489.08 814.703 2488.7 814.703C2488.5 814.703 2487.54 813.203 2486.5 811.356C2481.62 802.662 2473.65 794.622 2462.46 787.121C2454.11 781.543 2441.46 775.426 2429.8 771.348C2417.91 767.194 2403.79 764.193 2391.1 763.154C2384.18 762.539 2371.67 762.539 2365.52 763.116C2359.32 763.693 2348.94 765.809 2342.82 767.771C2340.17 768.617 2337.78 769.309 2337.47 769.309C2336.2 769.309 2338.55 767.655 2342.59 765.693C2351.17 761.5 2361.29 758.73 2373.6 757.192C2380.06 756.384 2395.91 756.691 2402.83 757.73ZM1931.51 774.695C1937.51 775.118 1949.59 776.696 1954.05 777.619C1957.63 778.35 1963.24 780.081 1963.7 780.543C1963.97 780.812 1963.47 780.85 1962.17 780.696C1947.47 778.734 1940.55 778.157 1930.81 778.157C1907.85 778.157 1881.38 783.466 1856.68 792.968C1816.02 808.664 1772.59 838.631 1741.89 872.215C1733.54 881.409 1721.77 896.066 1717.23 902.991C1715.08 906.299 1712.31 910.915 1709.46 915.955C1707.81 918.878 1706.38 921.264 1706.27 921.264C1705.84 921.264 1706.54 918.917 1707.73 916.147C1710.77 909.146 1714.88 901.567 1720.69 892.373C1735.81 868.522 1760.36 842.863 1785.78 824.321C1788.21 822.551 1791.09 820.474 1792.13 819.704C1797.48 815.78 1809.56 808.125 1816.79 804.086C1829.06 797.2 1839.26 792.43 1851.57 787.775C1862.26 783.735 1867.45 782.12 1877.15 779.889C1897.08 775.272 1915.08 773.541 1931.51 774.695ZM2094.5 775.08C2103.58 775.965 2113.12 777.503 2120.85 779.388C2125.2 780.427 2139.89 784.697 2141.82 785.505C2142.24 785.659 2144.16 786.351 2146.05 787.044C2159.36 791.737 2180.02 801.816 2193.17 810.049C2220.95 827.36 2245.57 848.826 2264.3 872.023C2272.96 882.717 2277.85 889.565 2283.12 898.374C2288.42 907.299 2294.2 919.263 2293.89 920.763C2293.81 921.071 2292.19 918.609 2290.23 915.224C2284.15 904.722 2278.58 896.566 2271.69 887.988C2260.27 873.792 2246.49 859.559 2232.8 847.749C2193.91 814.357 2150.24 791.506 2108.16 782.543C2087 778.042 2069.15 777.157 2047.8 779.465C2042.87 780.042 2038.41 780.581 2037.91 780.696C2037.41 780.812 2036.99 780.773 2036.99 780.581C2036.99 779.619 2044.99 777.657 2055.65 776.042C2066.15 774.426 2083.23 774.003 2094.5 775.08ZM1631.91 796.2C1643.87 798.277 1652.29 800.816 1659.99 804.701C1663.18 806.317 1665.91 808.125 1665.64 808.433C1665.53 808.51 1663.84 808.048 1661.87 807.433C1645.99 802.355 1632.79 800.7 1615.25 801.585C1584.67 803.086 1551.47 814.896 1530.85 831.553C1524.31 836.823 1518.31 843.825 1515.38 849.595C1513.84 852.634 1512.96 852.288 1513.96 849.018C1519.65 830.514 1544.93 810.741 1574.82 801.47C1580.82 799.623 1592.05 797.2 1599.21 796.2C1608.67 794.892 1624.37 794.892 1631.91 796.2ZM2404.37 796.969C2413.18 798.431 2415.99 799.046 2422.07 800.739C2452.84 809.433 2478.96 828.899 2485.54 848.018C2486.77 851.595 2486.39 852.403 2484.77 849.71C2478.19 839.016 2472.92 833.515 2462.69 826.667C2444.3 814.357 2422.18 806.279 2396.68 802.624C2386.18 801.085 2366.4 801.085 2357.63 802.585C2353.05 803.355 2344.44 805.471 2339.01 807.163C2336.59 807.933 2334.51 808.471 2334.43 808.356C2334.24 808.202 2336.63 806.663 2339.86 804.894C2345.51 801.816 2354.59 798.892 2363.79 797.2C2371.9 795.738 2375.13 795.507 2386.68 795.661C2396.29 795.776 2397.91 795.892 2404.37 796.969ZM1993.13 809.318C1998.06 809.818 2004.1 809.779 2006.21 809.279C2010.87 808.202 2033.14 809.048 2043.14 810.703C2064.42 814.242 2089.42 822.013 2111.62 832.015C2125.58 838.324 2147.51 849.787 2159.78 857.25C2197.41 880.178 2229.14 905.876 2257.96 936.844C2269.46 949.192 2283.96 968.119 2292.89 982.43C2306.81 1004.78 2314.43 1024.13 2318.16 1046.67C2319.78 1056.52 2319.7 1058.29 2316.35 1082.64C2315.7 1087.3 2314.81 1094.03 2314.35 1097.65C2313.24 1106.61 2311.81 1116.53 2310.7 1123.42C2310.2 1126.57 2309.04 1133.69 2308.2 1139.19C2306.58 1149.5 2305.54 1155.7 2301.66 1178.05C2301.27 1180.35 2300.5 1184.78 2299.97 1187.86C2299.43 1190.93 2298.89 1193.93 2298.81 1194.59C2295.31 1214.98 2286.5 1258.33 2279.92 1287.49C2278.31 1294.57 2276.77 1301.5 2276.46 1302.88C2275.92 1305.27 2275.23 1308.23 2273.58 1315.27C2273.19 1317.04 2272.23 1321.04 2271.5 1324.23C2270.19 1330 2263.65 1356.62 2261.8 1363.85C2261.27 1365.97 2259.84 1371.43 2258.65 1375.97C2256.69 1383.51 2256.5 1384.63 2256.5 1388.51L2256.46 1392.78L2254.76 1395.05C2242.42 1411.56 2229.72 1424.94 2206.06 1446.41C2191.67 1459.49 2164.05 1483.22 2146.55 1497.57C2143.9 1499.77 2118.51 1520.04 2108.5 1527.93C2088.15 1544.04 2080.34 1549.35 2066.8 1556.12C2050.34 1564.36 2037.1 1568.43 2019.29 1570.9C2011.91 1571.9 1987.94 1571.9 1980.82 1570.9C1952.86 1566.93 1928.39 1557.7 1906.77 1542.97C1896.19 1535.74 1885.88 1528.23 1876.96 1521.19C1855.07 1503.96 1849.07 1499 1825.79 1478.92C1804.29 1460.37 1790.86 1448.03 1777.71 1434.64C1767.01 1423.79 1760.09 1413.4 1750.12 1393.48C1746.7 1386.67 1741.74 1375.59 1740.89 1372.89C1740.04 1370.2 1734.77 1349.2 1733.23 1342.31C1731.27 1333.62 1731.04 1332.69 1729.23 1325.19C1728.35 1321.5 1727.39 1317.5 1727.12 1316.34C1723.73 1301.73 1720.08 1285.45 1717.31 1272.87C1716.69 1270.03 1715.23 1263.33 1714.08 1258.06C1712.92 1252.75 1711.35 1245.14 1710.58 1241.14C1709.81 1237.1 1708.5 1230.37 1707.69 1226.13C1706.84 1221.9 1705.57 1215.13 1704.81 1211.13C1704.04 1207.09 1703 1201.74 1702.5 1199.2C1699.38 1183.2 1692.53 1141.96 1689.23 1119.57C1688.19 1112.49 1686.99 1104.65 1686.34 1100.34C1686.03 1098.42 1685.42 1094.11 1684.99 1090.72C1684.53 1087.34 1683.96 1082.64 1683.65 1080.33C1683.34 1077.99 1682.72 1073.14 1682.22 1069.56C1680.99 1059.98 1681.07 1051.02 1682.42 1043.6C1684.8 1030.63 1689.84 1015.98 1697.07 1001.09C1708.88 976.736 1728.5 950.116 1751.93 926.649C1769.36 909.146 1782.28 897.99 1803.67 881.986C1813.79 874.408 1820.64 869.715 1832.91 861.944C1867.88 839.824 1901.38 824.59 1936.01 815.165C1945.09 812.664 1960.47 810.01 1969.67 809.318C1972.74 809.087 1976.13 808.856 1977.17 808.779C1979.71 808.587 1988.56 808.894 1993.13 809.318ZM1456.6 812.203C1460.99 812.741 1468.26 814.434 1471.6 815.742C1472.49 816.05 1475.34 817.358 1477.95 818.589C1484.38 821.628 1484.18 822.436 1477.41 820.82C1463.87 817.627 1447.45 817.319 1437.94 820.051C1429.29 822.59 1422.67 826.475 1416.36 832.707C1411.51 837.439 1406.94 843.709 1402.28 851.903C1401.17 853.865 1400.13 855.558 1399.9 855.673C1398.51 856.558 1401.21 847.056 1404.21 840.555C1407.48 833.438 1414.21 824.975 1419.75 821.051C1426.33 816.358 1433.21 813.511 1440.71 812.434C1447.1 811.51 1450.64 811.433 1456.6 812.203ZM2555.98 812.01C2560.52 812.472 2565.33 813.549 2569.1 814.896C2581.1 819.243 2592.29 830.553 2597.26 843.44C2598.76 847.287 2600.95 854.596 2600.95 855.673C2600.95 857.097 2599.45 855.058 2597.18 850.595C2594.45 845.133 2588.91 837.593 2584.25 832.976C2576.79 825.552 2567.29 820.705 2556.79 818.896C2548.44 817.473 2536.44 818.012 2525.36 820.32C2522.82 820.858 2519.97 821.397 2519.01 821.512L2517.28 821.743L2518.05 820.858C2518.97 819.82 2524.4 817.204 2529.13 815.511C2538.67 812.164 2546.79 811.087 2555.98 812.01ZM1633.64 834.861C1645.25 836.785 1654.68 839.747 1663.76 844.286C1667.26 846.056 1668.84 847.171 1668.38 847.595C1668.3 847.71 1666.41 847.171 1664.18 846.402C1634.95 836.439 1598.63 838.4 1564.2 851.788C1554.35 855.635 1540 863.752 1532.65 869.676C1525.96 875.062 1521.04 880.678 1517.61 886.91C1515.84 890.142 1515.27 890.68 1515.57 888.872C1516.46 883.948 1519.34 878.486 1524.61 871.792C1535.27 858.328 1555.62 846.248 1578.93 839.555C1584.09 838.093 1586.78 837.439 1594.94 835.823C1596.09 835.592 1599.55 835.092 1602.63 834.707C1609.94 833.784 1627.64 833.861 1633.64 834.861ZM2397.45 834.707C2410.33 836.554 2418.64 838.439 2427.45 841.44C2434.3 843.786 2437.99 845.363 2444.46 848.595C2462.42 857.558 2476 869.638 2482.04 881.948C2484.89 887.68 2485.31 891.95 2482.58 887.026C2480.31 882.948 2479.23 881.448 2475.77 877.485C2468.96 869.638 2458.88 862.521 2445.76 856.212C2424.95 846.248 2402.68 840.824 2379.94 840.209C2363.36 839.785 2350.09 841.593 2335.93 846.248C2333.93 846.902 2332.13 847.364 2331.9 847.287C2331.47 847.133 2335.28 844.825 2338.78 843.055C2346.21 839.362 2359.71 835.746 2369.94 834.746C2372.29 834.515 2374.79 834.246 2375.52 834.169C2378.06 833.861 2394.56 834.284 2397.45 834.707ZM1465.3 852.98C1470.26 853.711 1475.84 855.019 1480.72 856.635C1485.84 858.289 1486.49 858.558 1486.49 859.251C1486.49 859.866 1486.57 859.866 1478.22 858.751C1472.6 857.981 1461.37 858.02 1455.52 858.789C1428.13 862.367 1406.94 874.716 1393.24 894.989C1391.01 898.336 1390.16 898.182 1391.47 894.643C1396.63 880.332 1407.67 868.599 1423.48 860.559C1430.36 857.02 1437.71 854.788 1447.06 853.365C1449.41 853.019 1451.56 852.673 1451.87 852.596C1453.6 852.249 1461.76 852.48 1465.3 852.98ZM2550.25 853.211C2560.52 854.519 2569.52 857.058 2576.91 860.751C2590.37 867.483 2600.41 877.216 2606.57 889.565C2608.87 894.143 2610.03 897.797 2609.18 897.797C2608.99 897.797 2608.11 896.605 2607.22 895.181C2601.99 886.795 2592.87 877.985 2583.14 871.907C2575.41 867.137 2563.48 862.367 2553.94 860.328C2542.36 857.828 2525.93 857.481 2516.39 859.559C2511.16 860.674 2512.55 859.059 2518.7 856.866C2520.9 856.058 2524.05 855.096 2525.78 854.711C2529.09 853.942 2537.9 852.788 2542.94 852.48C2543.52 852.442 2546.79 852.75 2550.25 853.211ZM2394.95 873.408C2421.34 876.177 2445.3 885.487 2463.61 900.144C2473.58 908.069 2481.27 918.878 2482.66 926.842C2482.93 928.227 2482.89 928.342 2482.35 927.803C2482 927.496 2480.93 925.764 2479.93 923.956C2476.31 917.378 2471.62 912.185 2463.96 906.337C2452.96 897.99 2434.34 889.334 2417.34 884.679C2409.18 882.448 2405.18 881.64 2395.95 880.217C2389.48 879.217 2388.56 879.14 2374.56 879.14C2358.94 879.14 2359.4 879.101 2347.24 881.486C2344.01 882.14 2332.7 885.333 2331.59 885.91C2331.24 886.103 2330.55 886.256 2330.09 886.256C2329.32 886.256 2329.28 886.179 2329.74 885.718C2330.63 884.872 2335.82 882.217 2339.59 880.64C2349.55 876.524 2360.79 873.831 2372.44 872.792C2377.14 872.369 2388.02 872.677 2394.95 873.408ZM1632.21 873.369C1640.64 874.408 1647.06 875.793 1654.22 878.139C1660.87 880.371 1668.49 883.91 1670.38 885.718C1671.57 886.872 1670.91 886.91 1668.22 885.872C1664.72 884.564 1656.87 882.409 1652.1 881.448C1641.29 879.293 1639.52 879.14 1625.37 879.178C1613.71 879.178 1611.36 879.293 1606.13 880.063C1585.74 883.025 1569.47 887.872 1553.74 895.72C1542.7 901.221 1535.04 906.53 1528.42 913.147C1524.19 917.417 1521.58 920.956 1519.27 925.611C1518.04 928.111 1517.88 928.265 1517.65 927.419C1516.84 924.38 1521.11 915.955 1526.96 909.069C1535.16 899.374 1548.31 890.488 1564.62 883.64C1577.09 878.409 1587.78 875.639 1603.44 873.562C1610.32 872.638 1625.37 872.561 1632.21 873.369ZM1476.91 893.373C1484.72 894.566 1491.11 896.489 1491.11 897.682C1491.11 898.143 1490.8 898.22 1489.68 898.028C1486.61 897.489 1473.95 897.336 1469.22 897.759C1451.37 899.413 1433.87 904.606 1419.4 912.531C1408.55 918.455 1401.09 924.495 1393.05 933.92C1391.9 935.266 1390.86 936.19 1390.78 935.92C1390.51 935.151 1393.59 929.15 1396.17 925.38C1402.55 916.109 1413.98 906.953 1426.52 901.106C1436.17 896.643 1448.87 893.566 1461.68 892.642C1464.95 892.412 1472.99 892.796 1476.91 893.373ZM2544.78 893.219C2552.9 894.104 2564.33 897.259 2572.83 901.029C2583.68 905.799 2594.68 913.8 2600.99 921.494C2605.37 926.842 2610.03 935.036 2609.18 935.843C2609.07 935.959 2608.14 935.113 2607.18 933.958C2604.37 930.612 2597.18 923.533 2594.18 921.187C2585.75 914.531 2573.79 908.376 2559.98 903.683C2547.86 899.528 2530.94 897.066 2518.09 897.566C2514.66 897.682 2511.24 897.913 2510.47 898.028C2509.39 898.22 2509.01 898.143 2509.01 897.759C2509.01 896.528 2514.24 894.72 2521.2 893.527C2527.67 892.412 2536.4 892.296 2544.78 893.219ZM1628.67 911.646C1636.87 912.3 1646.87 914.185 1654.6 916.493C1660.95 918.417 1671.91 923.572 1672.84 925.072C1673.26 925.764 1672.49 925.572 1667.68 923.956C1648.14 917.417 1625.83 915.724 1604.59 919.186C1589.32 921.648 1578.63 924.533 1565.66 929.573C1561.01 931.381 1550.66 936.459 1546.62 938.883C1534.35 946.307 1525.19 955.001 1521.46 962.811C1519.38 967.081 1518.84 966.003 1520.54 961.079C1524.96 948.308 1537.93 935.959 1557.08 926.265C1572.01 918.686 1589.36 913.762 1606.71 912.069C1609.06 911.839 1611.48 911.569 1612.09 911.492C1614.71 911.223 1624.06 911.3 1628.67 911.646ZM2395.1 912.223C2414.45 914.724 2430.15 919.494 2445.34 927.457C2457.42 933.766 2469.08 943.422 2474.69 951.731C2477.92 956.54 2481.39 964.157 2480.66 964.888C2480.12 965.426 2479.77 964.965 2478.08 961.849C2475.89 957.733 2473.62 954.732 2469.85 951.116C2458.57 940.229 2443.57 931.997 2422.84 925.303C2414.18 922.533 2401.95 919.956 2388.6 918.109C2382.79 917.301 2362.67 917.417 2356.86 918.301C2347.17 919.763 2339.09 921.648 2329.55 924.687C2325.16 926.072 2326.59 924.726 2332.97 921.456C2342.09 916.763 2356.94 912.916 2370.71 911.646C2375.9 911.185 2389.68 911.492 2395.1 912.223ZM1488.22 933.343C1495.15 934.843 1496.61 935.882 1491.8 935.882C1482.03 935.882 1466.18 937.998 1455.14 940.729C1430.1 946.961 1409.51 957.04 1398.2 968.542C1396.93 969.85 1395.78 970.889 1395.59 970.889C1395.4 970.889 1394.97 971.197 1394.63 971.543C1394.01 972.159 1393.97 972.12 1393.86 971.505C1393.63 970.312 1398.78 963.157 1402.82 959.117C1415.59 946.346 1435.29 937.074 1457.68 933.42C1465.68 932.112 1465.53 932.112 1475.14 932.227C1482.61 932.304 1484.15 932.458 1488.22 933.343ZM2538.44 932.843C2554.29 935.151 2565.52 938.613 2578.06 945.115C2589.06 950.847 2598.64 958.964 2604.03 967.119C2607.37 972.236 2607.07 972.851 2603.1 969.043C2589.41 955.886 2564.67 944.499 2537.86 938.998C2529.47 937.267 2516.36 935.805 2510.47 935.959C2506.08 936.074 2505.24 935.92 2505.7 935.189C2506.01 934.689 2511.78 933.458 2519.4 932.304C2522.63 931.804 2533.44 932.112 2538.44 932.843ZM1641.52 951.577C1649.68 953.001 1655.8 954.77 1663.3 957.771C1668.57 959.925 1674.99 963.349 1674.99 964.042C1674.99 964.58 1673.95 964.388 1670.88 963.195C1657.6 958.079 1635.64 955.309 1619.02 956.617C1593.67 958.656 1575.82 963.311 1555.93 973.005C1540.39 980.583 1528.69 990.624 1522.96 1001.2C1522.15 1002.7 1521.54 1002.78 1521.77 1001.36C1522.35 997.818 1524.65 993.086 1527.96 988.623C1540.54 971.582 1566.97 957.54 1596.51 952.231C1606.63 950.423 1610.06 950.154 1622.87 950.269C1634.18 950.385 1635.14 950.462 1641.52 951.577ZM2390.71 950.539C2420.87 953.155 2451.57 966.35 2467.65 983.661C2471.23 987.508 2472.46 988.893 2472.46 989.085C2472.46 989.201 2473.08 990.201 2473.85 991.316C2476.46 995.202 2478.46 1000.4 2478.16 1002.47C2478.08 1003.2 2477.58 1002.51 2476 999.51C2470.23 988.508 2456.96 978.314 2437.26 969.735C2422.53 963.349 2409.76 959.925 2390.91 957.348C2382.29 956.194 2363.48 956.078 2355.71 957.156C2343.9 958.81 2338.13 960.079 2330.51 962.772C2328.09 963.657 2325.74 964.349 2325.32 964.349C2322.7 964.311 2334.09 958.387 2341.51 955.924C2349.48 953.27 2359.52 951.116 2366.48 950.539C2372.13 950.077 2385.41 950.077 2390.71 950.539ZM1496.46 972.389C1500.57 973.159 1499.53 973.774 1493.03 974.544C1476.07 976.506 1458.29 981.083 1437.44 988.893C1429.98 991.663 1414.98 998.741 1408.98 1002.28C1406.48 1003.78 1401.82 1006.86 1398.28 1009.44C1394.13 1012.44 1395.32 1010.17 1401.05 1004.2C1407.36 997.664 1415.05 992.201 1425.21 987.046C1440.79 979.083 1456.14 974.351 1473.22 972.236C1477.95 971.62 1492.88 971.735 1496.46 972.389ZM2530.36 972.813C2539.98 974.236 2545.52 975.467 2552.86 977.891C2573.56 984.661 2591.87 995.394 2600.95 1006.05C2605.95 1011.94 2605.6 1012.55 2599.72 1008.09C2585.75 997.587 2561.21 986.931 2534.98 979.968C2525.32 977.39 2517.13 975.775 2507.93 974.582C2504.2 974.121 2501.16 973.543 2501.2 973.351C2501.7 971.62 2519.86 971.235 2530.36 972.813ZM1633.83 989.008C1649.68 990.662 1666.03 995.509 1674.53 1001.05C1678.65 1003.74 1678.49 1003.86 1673.07 1002.05C1672.34 1001.78 1671.22 1001.43 1670.57 1001.2C1664.3 999.126 1653.87 996.971 1644.6 995.817C1639.25 995.163 1618.56 995.163 1612.86 995.817C1603.63 996.894 1589.74 999.587 1584.78 1001.24C1584.17 1001.43 1581.47 1002.24 1578.82 1003.01C1573.47 1004.55 1570.2 1005.78 1562.85 1008.9C1545.16 1016.44 1531.46 1027.36 1525.27 1038.83C1523.54 1042.06 1523.08 1042.06 1523.81 1038.86C1526.54 1027.17 1541.43 1012.24 1559.01 1003.63C1565.93 1000.2 1568.16 999.279 1574.2 997.164C1594.44 990.085 1615.94 987.162 1633.83 989.008ZM2392.98 989.547C2410.87 991.893 2425.84 996.279 2439.8 1003.32C2447.23 1007.05 2450.88 1009.28 2456.46 1013.44C2462.38 1017.94 2465.69 1020.94 2468.62 1024.67C2469.88 1026.29 2471.27 1027.98 2471.62 1028.44C2473.81 1031.13 2476.85 1038.71 2476.62 1040.98C2476.5 1042.17 2476.39 1041.98 2474.69 1038.6C2469.77 1028.52 2459.88 1019.98 2443.8 1011.94C2435.15 1007.63 2422.18 1002.7 2416.87 1001.7C2415.84 1001.51 2414.34 1001.09 2413.6 1000.78C2411.83 1000.01 2397.68 997.241 2391.98 996.471C2379.25 994.856 2362.29 994.74 2351.86 996.202C2342.4 997.587 2332.32 999.818 2329.86 1001.09C2329.28 1001.4 2328.51 1001.66 2328.2 1001.66C2327.89 1001.66 2326.7 1002.01 2325.55 1002.43C2322.43 1003.63 2321.85 1003.24 2324.36 1001.59C2333.7 995.433 2353.71 989.854 2370.33 988.816C2374.87 988.547 2388.6 988.97 2392.98 989.547ZM1496.46 1010.55C1505.34 1011.17 1505.15 1011.67 1495.34 1013.36C1478.03 1016.4 1463.64 1019.78 1446.1 1024.94C1427.94 1030.29 1415.44 1034.86 1405.63 1039.79C1402.71 1041.21 1400.32 1042.25 1400.32 1042.02C1400.32 1041.1 1401.28 1040.02 1404.28 1037.71C1413.17 1030.79 1422.56 1025.86 1436.87 1020.63C1450.68 1015.55 1469.1 1011.59 1483.41 1010.55C1489.8 1010.09 1490.34 1010.09 1496.46 1010.55ZM2518.05 1010.67C2536.36 1012.13 2555.56 1016.9 2572.48 1024.25C2577.87 1026.59 2585.1 1030.21 2588.22 1032.17C2593.37 1035.36 2600.72 1041.63 2600.07 1042.29C2599.91 1042.44 2597.68 1041.52 2595.1 1040.21C2575.71 1030.59 2543.52 1020.63 2513.43 1014.94C2498.93 1012.21 2497.66 1011.97 2497.31 1011.63C2496.81 1011.17 2497.58 1010.94 2500.93 1010.55C2505.32 1010.05 2510.43 1010.09 2518.05 1010.67ZM1638.83 1032.63C1651.29 1034.02 1660.84 1036.67 1669.8 1041.17C1675.65 1044.1 1676.15 1045.1 1670.88 1043.29C1661.53 1040.06 1653.53 1038.67 1640.37 1038.02C1634.68 1037.71 1620.98 1038.63 1613.94 1039.79C1592.78 1043.21 1571.97 1050.75 1555.66 1060.95C1544 1068.22 1533.27 1077.91 1528.23 1085.72C1527.15 1087.41 1525.69 1089.64 1525 1090.72L1523.73 1092.64L1524 1090.91C1525.15 1082.57 1534.92 1069.14 1546.12 1060.48C1567.28 1044.1 1591.94 1034.79 1620.56 1032.32C1624.75 1031.94 1634.21 1032.13 1638.83 1032.63ZM2381.67 1032.63C2393.56 1033.71 2406.87 1036.56 2415.91 1039.94C2433.15 1046.4 2446.88 1054.33 2457.92 1064.22C2466.11 1071.6 2473.23 1081.53 2475.85 1089.37C2477.27 1093.53 2476.81 1094.07 2474.85 1090.61C2471.46 1084.72 2468.5 1080.83 2463.65 1075.8C2455.54 1067.41 2444.3 1059.91 2429.68 1053.1C2420.45 1048.83 2413.3 1046.21 2403.18 1043.44C2389.21 1039.63 2377.83 1038.1 2363.59 1038.06C2351.36 1038.06 2343.9 1039.06 2333.97 1041.94C2330.7 1042.9 2327.51 1043.79 2326.89 1043.9C2324.82 1044.25 2326.24 1043.17 2330.66 1041.1C2338.78 1037.25 2348.9 1034.25 2357.82 1033.06C2360.25 1032.71 2362.67 1032.4 2363.21 1032.29C2365.71 1031.94 2375.94 1032.13 2381.67 1032.63ZM2503.28 1049.37C2516.89 1050.17 2529.63 1052.29 2545.63 1056.48C2560.87 1060.45 2578.98 1067.83 2589.52 1074.41C2593.03 1076.56 2594.06 1077.53 2593.53 1078.06C2593.41 1078.18 2589.1 1076.87 2583.95 1075.18C2573.87 1071.87 2566.37 1069.56 2557.29 1067.06C2554.13 1066.18 2550.75 1065.22 2549.79 1064.95C2545.36 1063.6 2535.94 1061.14 2515.39 1055.94C2503.12 1052.83 2493.04 1050.1 2492.97 1049.87C2492.85 1049.56 2493.47 1049.37 2494.66 1049.25C2495.66 1049.17 2496.58 1049.1 2496.7 1049.06C2496.81 1049.02 2499.74 1049.17 2503.28 1049.37ZM1507.19 1049.83C1507 1050.41 1504.84 1051.02 1494.19 1053.56C1483.3 1056.14 1467.45 1060.25 1454.95 1063.72C1437.06 1068.72 1416.98 1074.68 1410.9 1076.83C1408.78 1077.6 1406.86 1078.22 1406.59 1078.22C1404.94 1078.26 1408.63 1075.41 1414.75 1071.99C1423.9 1066.83 1439.33 1060.68 1451.48 1057.37C1466.41 1053.33 1477.8 1051.14 1489.18 1050.17C1491.84 1049.94 1494.53 1049.67 1495.15 1049.6C1495.8 1049.56 1498.8 1049.44 1501.8 1049.41C1506.07 1049.37 1507.3 1049.48 1507.19 1049.83ZM1652.45 1074.18C1661.49 1075.06 1668.45 1076.76 1675.76 1079.83C1681.8 1082.37 1681.88 1082.87 1676.07 1081.49C1666.87 1079.33 1662.49 1078.87 1651.72 1078.87C1641.64 1078.87 1636.33 1079.33 1625.56 1081.14C1608.29 1083.99 1587.2 1090.91 1570.93 1099.07C1555.62 1106.72 1542.04 1116.88 1534.66 1126.11C1533.69 1127.34 1533.46 1127.5 1533.42 1126.88C1533.39 1124.69 1539.58 1115.84 1544.58 1110.96C1561.58 1094.34 1587.82 1081.53 1616.9 1075.72C1627.25 1073.64 1640.68 1073.06 1652.45 1074.18ZM2371.9 1074.18C2395.56 1076.6 2419.64 1085.14 2439.3 1098.11C2449.42 1104.76 2456.27 1110.76 2461.27 1117.3C2464.27 1121.27 2467.69 1127.34 2467.38 1128.23C2467.31 1128.5 2465.92 1127.07 2464.31 1125.11C2459.54 1119.19 2454.5 1114.61 2447.26 1109.69C2428.45 1096.84 2403.03 1086.49 2378.98 1081.91C2366.36 1079.49 2360.09 1078.87 2348.59 1078.87C2339.24 1078.87 2337.9 1078.95 2332.43 1079.91C2329.16 1080.45 2325.01 1081.26 2323.24 1081.68C2321.47 1082.1 2319.93 1082.41 2319.85 1082.33C2319.55 1081.99 2321.32 1080.87 2323.82 1079.8C2329.32 1077.45 2339.17 1075.03 2346.48 1074.22C2352.94 1073.49 2365.02 1073.49 2371.9 1074.18ZM1511.5 1087.99C1511.5 1089.41 1484.15 1096.3 1461.29 1100.68C1452.68 1102.34 1423.25 1107.3 1414.44 1108.61C1406.9 1109.69 1406.71 1109.26 1413.55 1106.49C1434.94 1097.92 1468.3 1090.91 1502.07 1087.87C1508.11 1087.34 1511.5 1087.37 1511.5 1087.99ZM2499.97 1088.03C2533.51 1090.99 2571.56 1099.34 2590.29 1107.88C2591.49 1108.42 2591.6 1108.8 2590.76 1109.15C2590.14 1109.38 2580.25 1108.07 2572.68 1106.72C2570.37 1106.34 2565.75 1105.53 2562.48 1104.95C2553.21 1103.38 2534.9 1099.92 2527.67 1098.38C2524.09 1097.65 2519.51 1096.68 2517.55 1096.26C2511.51 1094.99 2500.2 1092.11 2494.97 1090.45C2492.24 1089.61 2489.66 1088.84 2489.31 1088.72C2488.58 1088.49 2488.43 1088.14 2488.89 1087.72C2489.27 1087.3 2492.85 1087.41 2499.97 1088.03ZM1670.07 1115.69C1675.07 1116.5 1680.11 1117.69 1682.88 1118.73L1685.19 1119.57L1683.69 1119.69C1682.84 1119.77 1680.45 1119.65 1678.38 1119.42C1672.26 1118.73 1660.3 1118.92 1652.64 1119.77C1648.95 1120.15 1645.64 1120.61 1645.33 1120.69C1645.02 1120.8 1642.72 1121.27 1640.18 1121.69C1613.94 1126.19 1579.36 1139.04 1558.81 1151.89C1552.77 1155.66 1550.7 1157.16 1546 1161.24C1543.93 1163.04 1542.16 1164.43 1542.08 1164.31C1541.46 1163.74 1547.39 1156.62 1551.81 1152.62C1566.62 1139.15 1588.59 1127.96 1615.17 1120.34C1623.83 1117.84 1634.75 1115.76 1643.06 1115C1647.45 1114.61 1666.45 1115.07 1670.07 1115.69ZM2361.86 1115.69C2388.68 1119.27 2416.18 1129.69 2438.03 1144.5C2447.38 1150.85 2455.23 1158.5 2457.38 1163.31C2457.61 1163.93 2457.77 1164.39 2457.69 1164.39C2457.61 1164.39 2456.81 1163.66 2455.88 1162.81C2452.77 1159.89 2449.57 1157.23 2447.07 1155.47C2440.57 1150.93 2426.45 1143.42 2415.34 1138.62C2402.22 1132.92 2382.56 1126.5 2370.21 1123.8C2367.75 1123.27 2364.98 1122.65 2364.06 1122.46C2352.78 1119.8 2334.28 1118.34 2325.32 1119.3C2318.05 1120.11 2315.12 1120.27 2315.12 1119.84C2315.12 1118.73 2326.16 1116.19 2336.28 1115C2339.28 1114.65 2357.86 1115.15 2361.86 1115.69ZM1515.65 1126C1515.04 1127.81 1497.22 1133.42 1483.45 1136.15C1462.99 1140.19 1436.6 1142.96 1421.13 1142.77C1413.17 1142.65 1411.78 1142.39 1414.05 1141.35C1415.63 1140.62 1433.48 1137.15 1447.64 1134.81C1464.41 1132.04 1471.68 1131 1497.07 1127.84C1505.53 1126.77 1512.65 1125.84 1512.84 1125.73C1513.77 1125.38 1515.77 1125.57 1515.65 1126ZM2489.43 1125.92C2491.39 1126.27 2495.04 1126.77 2504.58 1128.04C2524.9 1130.69 2529.9 1131.38 2534.59 1132.08C2537.55 1132.5 2541.28 1133.04 2542.86 1133.27C2554.4 1134.88 2584.91 1140.54 2586.37 1141.35C2586.75 1141.54 2587.1 1141.96 2587.1 1142.27C2587.1 1143.23 2571.79 1143.04 2559.02 1141.89C2530.47 1139.35 2510.78 1135.69 2491.5 1129.38C2485.93 1127.54 2484 1126.65 2484 1125.88C2484 1125.42 2486.77 1125.42 2489.43 1125.92ZM1678.07 1155.58C1681.69 1155.93 1688.99 1157.16 1690.92 1157.7C1692.8 1158.27 1690.15 1158.54 1681.15 1158.74C1671.38 1158.93 1669.76 1159.08 1659.22 1160.97C1627.37 1166.7 1576.09 1185.39 1553.89 1199.4C1552.77 1200.09 1551.77 1200.59 1551.66 1200.44C1551 1199.78 1559.2 1192.74 1565.78 1188.32C1577.59 1180.39 1597.13 1171.31 1615.17 1165.35C1631.33 1159.97 1645.72 1156.73 1658.64 1155.54C1666.64 1154.81 1670.18 1154.81 1678.07 1155.58ZM2342.44 1155.77C2364.52 1158.39 2384.33 1163.97 2406.87 1173.89C2421.95 1180.55 2434.65 1187.93 2443.73 1195.32C2447.03 1198.01 2449.27 1200.55 2448.34 1200.55C2448.15 1200.55 2446.23 1199.4 2443.99 1198.01C2428.07 1188.01 2388.52 1172.66 2358.86 1165.01C2342.28 1160.74 2331.55 1159 2319.55 1158.77C2311.51 1158.58 2307.97 1158.35 2308.31 1158C2308.66 1157.66 2312.93 1156.77 2317.43 1156.12C2326.93 1154.73 2332.97 1154.66 2342.44 1155.77ZM2483.46 1164.24C2490.16 1166.04 2516.66 1170.55 2537.86 1173.47C2558.67 1176.32 2572.21 1177.85 2577.06 1177.85C2582.83 1177.85 2581.98 1179.05 2575.37 1180.16C2559.75 1182.82 2536.71 1181.59 2515.55 1176.89C2503.89 1174.32 2499.35 1172.97 2491.2 1169.78C2483.96 1166.93 2479.62 1164.74 2479.46 1163.85C2479.31 1163.16 2479.62 1163.16 2483.46 1164.24ZM1520.31 1164.24C1519.11 1165.66 1508.46 1170.31 1500.53 1172.85C1493.95 1174.93 1481.57 1177.78 1473.03 1179.16C1455.68 1181.97 1436.17 1182.36 1425.02 1180.2C1418.17 1178.85 1417.13 1177.85 1422.59 1177.85C1429.17 1177.85 1444.98 1176.12 1468.03 1172.85C1483.76 1170.66 1512.8 1165.47 1517.46 1164.04C1518.11 1163.85 1519.11 1163.66 1519.73 1163.66C1520.69 1163.62 1520.77 1163.7 1520.31 1164.24ZM2320.93 1195.36C2338.78 1196.74 2353.13 1199.97 2377.25 1208.01C2389.14 1211.98 2399.18 1215.94 2409.56 1220.71C2411.26 1221.52 2414.03 1222.79 2415.72 1223.56C2423.49 1227.1 2436.88 1234.21 2438.53 1235.67C2440.07 1237.1 2439.46 1237.52 2437.34 1236.52C2436.65 1236.21 2431.45 1234.33 2425.72 1232.33C2420.03 1230.33 2411.87 1227.44 2407.64 1225.94C2359.36 1208.71 2325.93 1198.9 2309.35 1197.09C2307.12 1196.86 2304.89 1196.55 2304.39 1196.47C2302 1195.97 2306.2 1194.9 2310.74 1194.82C2312.28 1194.82 2316.85 1195.05 2320.93 1195.36ZM1694.15 1195.4C1695.46 1195.59 1696.15 1195.82 1696.15 1196.17C1696.15 1196.47 1695.84 1196.7 1695.46 1196.7C1693.34 1196.7 1684.34 1198.01 1679.42 1199.01C1663.14 1202.4 1633.56 1211.32 1605.55 1221.32C1601.55 1222.79 1595.48 1224.94 1592.09 1226.13C1588.7 1227.33 1582.32 1229.6 1577.86 1231.21C1565.2 1235.75 1561.05 1237.14 1560.89 1236.98C1560.43 1236.52 1561.43 1235.48 1563.55 1234.17C1570.09 1230.13 1592.32 1219.56 1605.75 1214.13C1629.02 1204.71 1656.33 1197.47 1675.18 1195.74C1681.11 1195.2 1690.96 1195.05 1694.15 1195.4ZM1523.42 1203.32C1521.58 1204.82 1516 1207.9 1512.15 1209.55C1495.88 1216.48 1478.11 1219.79 1457.1 1219.79C1447.06 1219.79 1441.98 1219.36 1434.6 1217.82C1430.48 1216.98 1425.4 1215.4 1424.36 1214.63C1423.56 1214.05 1423.94 1213.13 1424.86 1213.4C1425.25 1213.52 1428.9 1213.78 1433.02 1214.05C1447.06 1214.9 1472.33 1212.75 1495.34 1208.82C1503.76 1207.36 1517.15 1204.21 1521.15 1202.74C1523.88 1201.74 1525 1202.01 1523.42 1203.32ZM2479.66 1203.05C2493.85 1207.51 2518.01 1211.59 2539.78 1213.25C2557.17 1214.55 2560.52 1214.59 2572.79 1213.78C2579.95 1213.28 2575.44 1215.79 2565.48 1217.82C2557.33 1219.52 2552.98 1219.9 2543.25 1219.86C2519.7 1219.79 2497.66 1214.98 2481.12 1206.32C2477.27 1204.28 2475.92 1203.36 2475.92 1202.63C2475.92 1201.9 2476.16 1201.94 2479.66 1203.05ZM1701.34 1234.37C1701.46 1234.56 1701.23 1234.83 1700.88 1234.94C1700.5 1235.06 1698.03 1235.75 1695.38 1236.52C1692.73 1237.29 1689.49 1238.25 1688.19 1238.64C1685.11 1239.56 1664.84 1246.33 1649.79 1251.52C1614.13 1263.8 1598.05 1268.57 1581.51 1271.84C1573.74 1273.37 1570.35 1273.84 1570.35 1273.26C1570.35 1272.72 1571.93 1271.99 1577.51 1270.03C1580.32 1269.07 1586.28 1266.87 1590.78 1265.22C1595.32 1263.53 1601.63 1261.18 1604.79 1259.99C1607.98 1258.83 1611.67 1257.45 1613.06 1256.95C1614.44 1256.41 1618.25 1255.06 1621.52 1253.87C1624.79 1252.72 1629.71 1250.95 1632.48 1249.98C1636.83 1248.45 1646.33 1245.37 1651.53 1243.83C1669.76 1238.44 1680.8 1236.02 1694.42 1234.29C1696.84 1233.98 1701.11 1234.02 1701.34 1234.37ZM2307.81 1234.6C2329.93 1237.21 2360.98 1246.6 2410.14 1265.56C2414.07 1267.06 2419.26 1268.99 2421.68 1269.83C2433.26 1273.84 2432.92 1274.6 2420.53 1272.3C2402.52 1268.91 2386.02 1263.87 2333.4 1245.79C2320.66 1241.41 2311.01 1238.21 2308.2 1237.48C2303.66 1236.29 2298.97 1234.67 2299.16 1234.37C2299.5 1233.87 2302.31 1233.94 2307.81 1234.6ZM1527.96 1240.83C1527.73 1242.18 1521.08 1246.68 1514.77 1249.79C1506.19 1254.02 1495.53 1257.37 1485.91 1258.83C1472.76 1260.83 1454.49 1260.29 1444.94 1257.64C1438.91 1255.95 1431.17 1252.52 1430.79 1251.41C1430.6 1250.75 1431.25 1250.83 1436.79 1251.91C1443.56 1253.25 1452.18 1253.79 1463.22 1253.49C1475.6 1253.18 1484.15 1252.18 1498.34 1249.45C1500.96 1248.91 1510.65 1246.48 1513.19 1245.68C1519.04 1243.87 1521.23 1243.06 1524 1241.71C1527.5 1240.02 1528.15 1239.91 1527.96 1240.83ZM2474.66 1241.18C2480.77 1243.91 2486.2 1245.68 2495.16 1247.83C2511.93 1251.95 2526.01 1253.64 2543.28 1253.64C2554.86 1253.64 2561.44 1252.95 2567.02 1251.1C2569.02 1250.45 2569.02 1250.45 2569.02 1251.1C2569.02 1252.33 2562.44 1255.56 2556.13 1257.41C2548.32 1259.72 2546.09 1259.95 2533.24 1259.95C2522.9 1259.95 2520.86 1259.83 2515.93 1259.06C2501.35 1256.76 2490.2 1252.99 2479.19 1246.6C2475.73 1244.6 2472.69 1242.29 2471.89 1241.1C2471.08 1239.83 2471.73 1239.87 2474.66 1241.18ZM1707.69 1272.3C1707.69 1272.6 1704.5 1274.1 1693.26 1279.14C1662.72 1292.76 1637.87 1301.73 1615.36 1307.23C1602.98 1310.27 1599.44 1310.77 1589.97 1310.77C1581.93 1310.77 1578.82 1310.5 1578.82 1309.84C1578.82 1309.65 1580.09 1309.38 1581.63 1309.23C1585.51 1308.88 1590.05 1308.03 1596.44 1306.5C1606.09 1304.15 1611.59 1302.38 1652.87 1288.38C1680.69 1278.91 1707.69 1271.03 1707.69 1272.3ZM2295.08 1272.49C2295.85 1272.68 2299.43 1273.57 2303 1274.45C2313.51 1276.95 2331.13 1282.49 2351.48 1289.68C2387.06 1302.26 2407.68 1308.34 2416.87 1308.96C2419.91 1309.19 2420.72 1309.34 2420.72 1309.8C2420.72 1311.23 2405.76 1311.23 2397.06 1309.8C2384.33 1307.65 2366.06 1302.53 2348.78 1296.26C2327.82 1288.61 2289.66 1272.18 2292.77 1272.1C2293.27 1272.1 2294.31 1272.26 2295.08 1272.49ZM1533.04 1278.53C1533.04 1278.91 1532.04 1280.11 1530.85 1281.26C1523.35 1288.26 1512.54 1293.72 1500.92 1296.3C1489.42 1298.92 1473.1 1298.92 1462.14 1296.34C1455.02 1294.69 1447.14 1291.19 1442.14 1287.42C1439.17 1285.22 1438.6 1283.99 1441.02 1285.03C1450.91 1289.34 1462.83 1291.45 1477.64 1291.45C1494.88 1291.49 1510.61 1288.49 1523.42 1282.72C1525.85 1281.61 1528.88 1280.07 1530.15 1279.3C1532.77 1277.68 1533.04 1277.61 1533.04 1278.53ZM2470.5 1279.53C2484.39 1287.42 2502.35 1291.49 2523.43 1291.45C2530.67 1291.42 2533.78 1291.26 2537.9 1290.65C2544.63 1289.65 2550.52 1288.18 2555.48 1286.3C2557.63 1285.49 2559.67 1284.8 2560.02 1284.8C2562.67 1284.8 2554.44 1290.42 2547.48 1293.38C2539.67 1296.69 2530.51 1298.26 2519.2 1298.26C2508.78 1298.26 2500.7 1297.03 2492.2 1294.19C2482.27 1290.84 2476.23 1287.45 2470.42 1282.11C2465.58 1277.61 2465.58 1276.76 2470.5 1279.53ZM1713.08 1310.46C1713.08 1311.5 1697.92 1321 1688.84 1325.69C1659.95 1340.62 1628.02 1350.2 1607.17 1350.2C1599.36 1350.2 1594.9 1349.43 1589.9 1347.24C1586.28 1345.66 1587.09 1345.12 1591.59 1346.12C1595.55 1347 1599.25 1347.2 1603.28 1346.74C1607.59 1346.23 1619.06 1344 1623.44 1342.81C1639.25 1338.58 1666.26 1329.15 1690.57 1319.42C1700.88 1315.27 1702.31 1314.69 1706.73 1312.69C1712.46 1310.15 1713.08 1309.92 1713.08 1310.46ZM2290.19 1311.11C2291.54 1311.61 2294.35 1312.84 2296.46 1313.84C2301.2 1316.07 2318.89 1323.23 2330.32 1327.5C2368.94 1341.93 2393.06 1348.08 2405.41 1346.7C2407.41 1346.5 2409.72 1346.08 2410.53 1345.77C2412.49 1345.08 2412.91 1345.7 2411.22 1346.74C2407.49 1349 2400.95 1350.24 2392.41 1350.24C2374.79 1350.24 2351.36 1344 2324.66 1332.16C2313.93 1327.42 2301.47 1320.61 2292.46 1314.61C2285.96 1310.27 2285.31 1309.23 2290.19 1311.11ZM1537.66 1316.31C1537.66 1317.08 1534.46 1321.35 1531.96 1323.92C1524.92 1331.15 1516.69 1335.19 1503.61 1337.73C1498.15 1338.81 1490.18 1338.66 1484.57 1337.35C1475.22 1335.23 1470.37 1333.08 1464.29 1328.5C1460.6 1325.69 1456.49 1321.88 1456.49 1321.27C1456.49 1320.61 1457.6 1321 1460.22 1322.5C1463.6 1324.5 1471.33 1327.62 1476.3 1329.04C1486.8 1332.04 1500.8 1332.19 1510.54 1329.39C1520.81 1326.42 1529.58 1322.11 1534.92 1317.42C1536.54 1316.04 1537.66 1315.57 1537.66 1316.31ZM2466.31 1318.11C2476.81 1325.85 2488.85 1330.27 2502.24 1331.35C2513.86 1332.31 2527.24 1329.31 2537.24 1323.54C2539.59 1322.15 2541.9 1320.96 2542.36 1320.81C2544.9 1320 2542.55 1323.15 2537.55 1327.15C2530.74 1332.62 2524.97 1335.31 2515.32 1337.54C2512.16 1338.27 2510.39 1338.39 2505.16 1338.39C2498.16 1338.39 2493.74 1337.62 2486.58 1335.16C2477.54 1332.08 2469.65 1326.38 2464.65 1319.34C2463.65 1317.96 2462.84 1316.73 2462.84 1316.58C2462.84 1315.92 2464.15 1316.5 2466.31 1318.11ZM1718.46 1349C1718.46 1349.58 1710.11 1357.39 1706.96 1359.78C1694.34 1369.36 1675.99 1378.82 1659.99 1384.01C1654.49 1385.78 1643.25 1388.55 1637.95 1389.44C1630.98 1390.63 1620.56 1390.86 1615.21 1390.01C1609.98 1389.21 1606.94 1388.28 1602.48 1386.17C1598.9 1384.44 1596.51 1382.78 1596.98 1382.32C1597.28 1382.01 1598.78 1382.36 1602.98 1383.82C1611.36 1386.7 1624.48 1386.24 1639.98 1382.51C1663.64 1376.86 1695.88 1363.16 1713.46 1351.39C1717.31 1348.77 1718.46 1348.24 1718.46 1349ZM2285.31 1350.74C2289.66 1353.62 2296.7 1357.51 2305.35 1361.89C2321.62 1370.05 2338.24 1376.39 2357.05 1381.7C2362.02 1383.09 2371.63 1384.78 2376.83 1385.2C2388.48 1386.13 2394.33 1385.47 2401.29 1382.47C2402.37 1382.01 2403.37 1381.78 2403.53 1381.93C2404.29 1382.7 2398.29 1386.36 2393.25 1388.09C2379.21 1392.98 2354.67 1390.17 2332.16 1381.13C2311.89 1372.93 2296.66 1363.78 2284.5 1352.43C2280 1348.2 2280.35 1347.5 2285.31 1350.74ZM2285.69 1394.86C2303.66 1408.36 2328.78 1419.6 2350.51 1423.9C2358.4 1425.48 2370.17 1426.06 2376.02 1425.17C2381.83 1424.33 2386.79 1422.4 2391.52 1419.25C2395.6 1416.48 2395.91 1417.02 2392.37 1420.6C2385.29 1427.71 2374.75 1431.37 2361.44 1431.37C2340.2 1431.37 2314.58 1422.17 2294.89 1407.52C2287.58 1402.05 2275.88 1389.36 2275.88 1386.86C2275.88 1386.51 2277.15 1387.47 2278.88 1389.13C2280.5 1390.67 2283.58 1393.24 2285.69 1394.86ZM1722.92 1389.47C1722.39 1390.28 1720.39 1392.74 1718.54 1394.9C1709.92 1404.94 1700.38 1411.98 1685.38 1419.4C1674.53 1424.79 1664.34 1428.14 1652.68 1430.21C1646.76 1431.25 1635.91 1431.68 1630.98 1431.02C1623.17 1429.98 1616.1 1427.37 1611.13 1423.67C1606.13 1419.98 1603.44 1415.94 1608.06 1419.1C1610.71 1420.9 1613.9 1422.44 1617.17 1423.48C1631.41 1428.14 1654.8 1425.02 1677.95 1415.36C1695.03 1408.25 1710.96 1398.67 1720.58 1389.71C1723.81 1386.7 1724.81 1386.59 1722.92 1389.47ZM2202.83 1482.96C2205.64 1484.34 2208.56 1486.96 2208.56 1488.03C2208.56 1490.53 2202.14 1499.3 2193.21 1508.88C2188.67 1513.81 2173.4 1529.12 2170.05 1532.16L2166.75 1535.16L2163.13 1534.58C2154.55 1533.23 2149.13 1531.97 2149.01 1531.35C2148.93 1530.97 2150.28 1529.54 2152.67 1527.5C2154.74 1525.73 2157.32 1523.54 2158.36 1522.54C2159.44 1521.58 2161.71 1519.58 2163.36 1518.12C2172.21 1510.35 2184.4 1498.23 2190.79 1491C2197.87 1482.92 2198.98 1481.76 2199.79 1481.76C2200.18 1481.76 2201.56 1482.3 2202.83 1482.96ZM1799.32 1489.84C1813.37 1507.46 1827.68 1524.04 1834.99 1531.2C1836.06 1532.23 1836.95 1533.31 1836.95 1533.58C1836.95 1533.85 1836.49 1534.2 1835.91 1534.31C1835.29 1534.47 1833.56 1534.89 1831.99 1535.27C1830.41 1535.7 1828.98 1536 1828.79 1536C1828.22 1536 1807.71 1515.54 1802.94 1510.23C1793.05 1499.27 1787.98 1492.57 1787.48 1490C1787.28 1488.88 1787.4 1488.46 1788.13 1487.65C1789.32 1486.34 1793.52 1483.65 1794.09 1483.76C1794.36 1483.84 1796.71 1486.57 1799.32 1489.84ZM2152.78 1535.24C2155.01 1535.62 2158.67 1536.31 2160.9 1536.74C2165.82 1537.62 2166.48 1537.93 2166.82 1539.54C2166.98 1540.24 2168.02 1544.89 2169.13 1549.85C2170.29 1554.82 2171.55 1560.62 2172.02 1562.74C2172.48 1564.86 2173.09 1567.7 2173.4 1569.09C2173.71 1570.47 2174.9 1576.01 2176.06 1581.4C2179.09 1595.44 2180.06 1599.56 2184.71 1618.52C2192.06 1648.53 2193.87 1655.53 2195.33 1659.72C2196.37 1662.8 2196.44 1663.34 2195.79 1663.34C2195.02 1663.34 2179.09 1659.45 2178.59 1659.15C2178.33 1658.99 2177.86 1657.72 2177.56 1656.38C2176.44 1651.64 2174.25 1641.99 2173.75 1639.68C2173.06 1636.45 2170.67 1625.41 2169.71 1621.02C2169.25 1619.02 2168.67 1616.25 2168.36 1614.87C2168.09 1613.48 2167.13 1608.98 2166.28 1604.86C2165.4 1600.75 2164.51 1596.44 2164.28 1595.32C2164.09 1594.25 2163.21 1590.32 2162.36 1586.67C2161.51 1583.05 2160.51 1578.47 2160.09 1576.59C2159.71 1574.67 2158.74 1570.28 2157.98 1566.78C2156.32 1559.36 2154.21 1549.89 2153.17 1545.16C2152.28 1541.16 2152.09 1540.74 2149.67 1537.81C2147.78 1535.58 2147.32 1534.47 2148.28 1534.47C2148.51 1534.47 2150.55 1534.81 2152.78 1535.24ZM1843.99 1537.62C1843.87 1539.35 1842.45 1546.89 1840.79 1554.47C1840.37 1556.47 1839.76 1559.32 1839.45 1560.82C1839.14 1562.28 1838.56 1565.16 1838.1 1567.16C1837.64 1569.17 1836.95 1572.47 1836.56 1574.47C1836.18 1576.47 1835.49 1579.67 1835.02 1581.59C1834.56 1583.48 1834.06 1585.82 1833.87 1586.78C1833.06 1590.75 1829.18 1608.75 1827.95 1614.29C1826.29 1621.56 1825.06 1627.29 1823.64 1633.99C1822.91 1637.53 1821.98 1641.91 1821.56 1643.72C1821.18 1645.53 1820.18 1650.26 1819.29 1654.3C1818.44 1658.3 1817.48 1662.38 1817.21 1663.34L1816.71 1665.07L1807.98 1665.18C1799.86 1665.26 1799.25 1665.22 1799.25 1664.61C1799.25 1664.22 1799.86 1662.11 1800.63 1659.88C1803.21 1652.34 1808.13 1633.56 1811.56 1618.14C1811.94 1616.44 1812.9 1612.44 1813.67 1609.29C1816.1 1599.36 1817.29 1594.09 1823.64 1564.86C1824.18 1562.43 1825.02 1558.43 1825.56 1556.01C1826.1 1553.59 1827.06 1549.08 1827.72 1546.01C1828.98 1540.12 1829.52 1538.85 1830.91 1538.51C1839.76 1536.27 1842.3 1535.7 1843.1 1535.74C1843.99 1535.81 1844.06 1535.93 1843.99 1537.62ZM1943.55 1582.01C1947.05 1583.75 1947.05 1583.75 1946.82 1584.98C1946.66 1585.67 1945.93 1590.36 1945.2 1595.44C1944.47 1600.52 1943.43 1607.37 1942.89 1610.64C1942.39 1613.91 1941.58 1618.75 1941.2 1621.41C1940.78 1624.06 1940.16 1627.75 1939.85 1629.68C1938.97 1635.06 1933.7 1670.53 1932.16 1681.42C1930.08 1696.23 1928.51 1708.66 1927.77 1715.81C1927.58 1717.7 1927.2 1719.43 1926.93 1719.73C1926.39 1720.23 1920.12 1720.85 1912.92 1721.12L1909.85 1721.23L1909.92 1719.81C1909.96 1719 1910.62 1716.35 1911.39 1713.89C1913.19 1707.85 1915.43 1698.69 1917.54 1688.54C1918.5 1683.88 1919.46 1679.3 1919.7 1678.38C1920.27 1675.96 1921.2 1671.53 1925.08 1652.37C1928.58 1635.18 1931.66 1619.56 1934.62 1603.71C1935.04 1601.48 1935.74 1597.75 1936.2 1595.44C1936.62 1593.09 1937.16 1590.17 1937.39 1588.9C1937.85 1586.01 1938.93 1580.9 1939.16 1580.51C1939.43 1580.01 1939.97 1580.21 1943.55 1582.01ZM2056.76 1582.82C2056.88 1583.21 2057.49 1587.4 2058.15 1592.17C2060.22 1607.6 2061.26 1614.56 2062.38 1621.6C2062.99 1625.41 2063.92 1631.37 2064.46 1634.87C2068.11 1658.38 2072.23 1679.11 2077 1697.38C2079.88 1708.46 2082.81 1717.08 2083.96 1717.81C2084.15 1717.93 2084.31 1718.35 2084.31 1718.77C2084.31 1719.62 2083.5 1719.7 2080.84 1719.08C2079.88 1718.85 2076.3 1718.2 2072.84 1717.62C2069.03 1716.96 2066.34 1716.31 2065.99 1715.96C2065.57 1715.54 2065.26 1713.46 2064.84 1708.12C2063.49 1690.61 2059.84 1663.92 2054.53 1632.95C2050.49 1609.44 2049.76 1605.17 2047.91 1596.02C2047.18 1592.32 2046.53 1588.32 2046.49 1587.17L2046.41 1585.05L2050.45 1583.63C2055.07 1582.05 2056.45 1581.86 2056.76 1582.82Z" fill="white"/>
<path d="M1790.21 1009.16C1789.36 1009.43 1786.25 1010.43 1783.28 1011.4C1761.55 1018.32 1739.58 1029.67 1726.93 1040.48C1723.46 1043.44 1718.31 1048.63 1717.69 1049.71C1717.15 1050.75 1717.12 1050.79 1720.5 1048.48C1723.39 1046.52 1731.77 1042.25 1737.12 1040.02C1746.97 1035.94 1759.93 1031.94 1773.28 1028.86C1788.32 1025.36 1788.67 1025.32 1790.71 1025.78C1791.71 1026.01 1802.21 1028.67 1814.06 1031.63C1849.95 1040.71 1882.5 1048.83 1890.42 1050.67C1894.54 1051.64 1904.5 1054.1 1912.54 1056.1C1930.2 1060.56 1933.54 1061.29 1935.81 1061.29C1938.16 1061.29 1940.93 1060.25 1942.78 1058.68C1945.12 1056.64 1945.59 1055.48 1945.59 1051.44C1945.59 1047.37 1944.89 1044.52 1943.74 1043.79C1942.82 1043.17 1936.31 1041.59 1918.89 1037.63C1917.73 1037.36 1911.5 1035.9 1905.04 1034.36C1892.57 1031.4 1883.34 1029.28 1879.26 1028.4C1877.88 1028.09 1872.61 1026.9 1867.53 1025.71C1856.26 1023.05 1850.22 1021.67 1836.76 1018.63C1822.29 1015.36 1816.75 1014.09 1810.98 1012.74C1797.48 1009.59 1793.02 1008.59 1792.36 1008.63C1792.02 1008.63 1791.05 1008.9 1790.21 1009.16Z" fill="white"/>
<path d="M2188.75 1009.55C2181.29 1011.24 2179.83 1011.59 2170.86 1013.67C2165.9 1014.86 2158.63 1016.51 2154.7 1017.44C2150.78 1018.32 2144.82 1019.71 2141.43 1020.51C2138.05 1021.32 2132.93 1022.51 2130.08 1023.17C2127.24 1023.78 2119.27 1025.63 2112.39 1027.21C2105.5 1028.79 2098.35 1030.44 2096.42 1030.86C2094.54 1031.29 2090.27 1032.29 2087 1033.02C2077.61 1035.21 2075.07 1035.79 2065.84 1037.83C2050.76 1041.17 2043.76 1042.83 2042.68 1043.25C2041.07 1043.9 2039.99 1046.98 2039.99 1051.17C2039.99 1056.1 2041.34 1058.45 2045.45 1060.56C2048.49 1062.14 2052.03 1061.83 2062.76 1059.02C2071.03 1056.87 2150.9 1036.71 2159.9 1034.48C2162.01 1033.94 2170.67 1031.79 2179.13 1029.67C2187.6 1027.55 2195.25 1025.71 2196.1 1025.63C2197.64 1025.44 2199.87 1025.9 2215.68 1029.55C2233.76 1033.79 2254.88 1041.67 2263.92 1047.64C2265.07 1048.4 2266.15 1048.94 2266.38 1048.87C2266.88 1048.71 2263.38 1044.56 2260.65 1042.1C2255.15 1037.17 2245.57 1030.55 2237.22 1025.98C2229.57 1021.75 2215.79 1015.82 2206.06 1012.51C2201.83 1011.09 2193.33 1008.59 2192.9 1008.63C2192.75 1008.67 2190.87 1009.09 2188.75 1009.55Z" fill="white"/>
<path d="M1824.45 1044.41C1815.71 1045.02 1806.79 1046.75 1796.44 1049.79C1791.59 1051.22 1784.86 1053.99 1778.55 1057.14L1772.28 1060.26L1770.82 1059.56C1769.97 1059.22 1769.09 1058.99 1768.78 1059.1C1768.47 1059.22 1768.66 1059.45 1769.36 1059.76C1770.82 1060.45 1770.67 1061.1 1768.78 1062.33C1766.05 1064.06 1758.35 1069.45 1757.12 1070.45C1755.55 1071.76 1754.05 1071.53 1741.77 1068.22C1740.12 1067.8 1738.7 1067.49 1738.62 1067.56C1738.54 1067.64 1741.51 1069.22 1745.2 1071.03C1749.47 1073.14 1751.93 1074.57 1751.93 1074.95C1751.93 1075.37 1752.39 1075.53 1753.78 1075.53C1755.89 1075.57 1757.01 1075.95 1767.28 1080.18C1767.86 1080.41 1768.05 1080.72 1767.86 1080.91C1767.4 1081.38 1757.66 1083.45 1751.55 1084.38C1748.89 1084.8 1743.51 1085.34 1739.58 1085.61C1733.12 1086.03 1732.08 1085.99 1728.62 1085.38C1726.54 1084.99 1724.16 1084.61 1723.31 1084.49L1721.85 1084.3L1722.12 1085.88C1723.31 1092.95 1728.96 1100.07 1737.24 1104.88C1740.12 1106.57 1746.16 1109.23 1750.97 1110.96C1752.89 1111.61 1754.66 1112.38 1754.97 1112.61C1755.59 1113.11 1758.47 1118.88 1758.47 1119.65C1758.47 1119.96 1758.05 1120.34 1757.55 1120.54C1756.35 1120.96 1747.85 1122.58 1740.77 1123.65C1737.7 1124.15 1735.04 1124.65 1734.85 1124.81C1734.27 1125.35 1736.27 1125.85 1740.47 1126.27C1744.97 1126.77 1754.85 1128 1760.59 1128.85C1763.28 1129.23 1764.86 1129.69 1765.78 1130.31C1767.36 1131.35 1769.43 1134.16 1769.09 1134.73C1768.93 1134.96 1768.16 1135.31 1767.4 1135.54C1763.89 1136.5 1754.24 1138.58 1752.2 1138.85C1751.01 1138.96 1749.89 1139.23 1749.78 1139.43C1749.66 1139.62 1749.62 1139.77 1749.7 1139.77C1749.78 1139.77 1752.85 1140.12 1756.55 1140.54C1760.24 1140.96 1765.36 1141.39 1767.9 1141.54C1774.2 1141.85 1778.94 1142.7 1781.48 1143.93C1785.32 1145.81 1785.21 1147.04 1781.09 1148.24C1779.55 1148.66 1776.9 1149.43 1775.2 1149.93C1773.51 1150.43 1771.63 1150.97 1770.97 1151.12L1769.82 1151.39L1770.78 1151.77C1771.32 1152.01 1777.36 1152.31 1784.24 1152.47C1797.25 1152.81 1799.98 1153.08 1804.21 1154.51C1806.13 1155.16 1806.75 1155.51 1806.75 1156.08C1806.75 1156.7 1805.48 1157.2 1798.67 1159.28C1794.25 1160.62 1790.44 1161.93 1790.21 1162.12C1790.02 1162.31 1790.44 1162.47 1791.44 1162.47C1793.25 1162.47 1809.44 1161.12 1814.44 1160.55C1822.56 1159.62 1832.41 1158.66 1835.79 1158.43C1849.18 1157.58 1860.11 1155.7 1872.15 1152.27C1887 1148.04 1903.27 1140.54 1914.27 1132.92C1920.66 1128.5 1923.12 1125.65 1923.12 1122.77C1923.12 1120.15 1919.04 1114.88 1912.16 1108.57C1910.04 1106.65 1905.73 1102.42 1902.54 1099.19C1897 1093.57 1894.46 1091.18 1892.31 1089.57C1891.77 1089.15 1890.27 1088.03 1889.04 1087.11C1883.65 1082.99 1875.96 1078.57 1869.3 1075.72C1861.41 1072.37 1849.07 1068.8 1841.37 1067.64C1836.52 1066.91 1829.83 1065.49 1826.41 1064.41C1820.41 1062.53 1811.56 1058.76 1811.56 1058.02C1811.56 1057.25 1813.67 1057.06 1824.83 1056.83C1844.33 1056.41 1855.99 1058.45 1872.72 1065.22C1888.11 1071.45 1899.42 1078.64 1916.39 1092.88C1919.35 1095.38 1922.54 1098.15 1923.5 1098.99C1926 1101.3 1927.35 1102.23 1927.35 1101.65C1927.35 1101.38 1925.89 1098.96 1924.08 1096.26C1908.89 1073.49 1888.34 1057.18 1865.22 1049.6C1856.14 1046.64 1847.83 1044.98 1838.83 1044.37C1832.64 1043.94 1831.02 1043.94 1824.45 1044.41ZM1810.52 1058.83C1811.98 1060.56 1819.75 1067.1 1821.29 1067.87C1822.95 1068.72 1823.06 1069.14 1821.87 1069.91C1819.37 1071.45 1813.29 1071.33 1805.79 1069.57C1797.32 1067.53 1785.67 1064.37 1785.25 1063.99C1785.05 1063.79 1785.28 1063.49 1785.82 1063.26C1788.17 1062.26 1806.48 1057.91 1808.6 1057.87C1809.29 1057.83 1809.94 1058.18 1810.52 1058.83ZM1782.74 1067.53C1784.74 1068.6 1788.48 1070.53 1791.09 1071.8C1795.63 1073.99 1796.59 1074.87 1795.17 1075.41C1794.02 1075.84 1776.74 1074.76 1769.28 1073.8C1765.24 1073.26 1761.86 1072.84 1761.74 1072.84C1761.05 1072.84 1761.82 1071.95 1763.24 1071.1C1764.93 1070.1 1777.36 1065.6 1778.51 1065.56C1778.86 1065.53 1780.78 1066.41 1782.74 1067.53ZM1804.25 1086.76C1804.25 1087.03 1803.79 1088.65 1803.21 1090.34C1802.33 1093.07 1802.21 1094.07 1802.17 1098.8C1802.13 1103.76 1802.21 1104.46 1803.21 1107.34C1807.02 1118.46 1818.06 1126.88 1832.91 1130C1837.64 1131 1846.8 1130.92 1851.8 1129.85C1856.03 1128.92 1861.22 1127 1864.84 1124.96C1868.22 1123.04 1873.07 1119.04 1875.76 1115.84C1879.57 1111.38 1882.3 1104.88 1882.34 1100.23C1882.34 1098.61 1882.92 1098.65 1885.03 1100.57C1886 1101.42 1888.04 1103.19 1889.61 1104.5C1891.15 1105.8 1894.88 1109.03 1897.88 1111.69C1900.88 1114.34 1904.35 1117.38 1905.58 1118.46C1908.39 1120.92 1908.35 1121.31 1904.85 1125.08C1898.04 1132.42 1884.8 1138.27 1867.26 1141.66C1859.99 1143.08 1856.53 1143.5 1848.68 1144C1830.02 1145.16 1815.29 1143.58 1802.13 1139C1791.44 1135.27 1780.55 1127.69 1776.05 1120.81C1775.24 1119.58 1773.86 1117.15 1772.97 1115.42C1771.47 1112.5 1771.36 1112.07 1771.4 1109.3C1771.43 1106.73 1771.63 1106 1772.86 1103.53C1775.28 1098.69 1779.63 1094.88 1786.86 1091.3C1794.05 1087.72 1804.25 1085.07 1804.25 1086.76ZM1829.48 1087.41C1833.29 1089.15 1835.56 1093.34 1834.64 1096.96C1833.72 1100.69 1831.68 1102.88 1828.56 1103.57C1826.37 1104.03 1824.52 1103.65 1822.06 1102.23C1817.48 1099.61 1816.98 1092.53 1821.1 1088.95C1823.75 1086.61 1826.56 1086.11 1829.48 1087.41Z" fill="white"/>
<path d="M2147.28 1044.79C2139.82 1045.52 2129.28 1048.21 2120.85 1051.56C2101.93 1059.06 2084.65 1072.45 2072 1089.45C2067 1096.14 2063.26 1101.91 2063.65 1102.34C2063.92 1102.61 2064.57 1102.07 2072.27 1095.22C2083.58 1085.1 2098.19 1074.91 2109.31 1069.37C2127.82 1060.14 2145.97 1056.13 2166.63 1056.83C2176.06 1057.13 2179.52 1057.48 2179.52 1058.02C2179.52 1058.48 2172.71 1061.87 2167.98 1063.75C2162.82 1065.83 2159.9 1066.52 2151.67 1067.6C2143.51 1068.71 2142.28 1068.98 2133.74 1071.56C2119.27 1075.91 2106.89 1082.68 2096.35 1091.99C2090.46 1097.18 2072.15 1115.72 2070.65 1118.03C2069.42 1119.92 2069.11 1120.76 2069 1122.65C2068.84 1124.8 2068.92 1125.07 2070.26 1126.88C2076.07 1134.73 2101.31 1147.5 2121.81 1152.96C2133.09 1155.96 2140.39 1157.16 2155.28 1158.42C2159.09 1158.73 2164.36 1159.27 2167.02 1159.58C2185.71 1161.81 2198.79 1162.89 2201.25 1162.46L2202.6 1162.19L2200.29 1161.5C2187.37 1157.66 2184.52 1156.73 2184.4 1156.35C2184.21 1155.73 2186.37 1154.89 2190.98 1153.81C2194.52 1152.96 2196.25 1152.85 2208.02 1152.54C2221.45 1152.15 2224.37 1151.81 2220.53 1150.96C2219.41 1150.73 2218.33 1150.54 2218.06 1150.54C2216.95 1150.54 2207.41 1147.27 2207.41 1146.85C2207.41 1146.42 2210.41 1144.27 2212.64 1143.11C2213.29 1142.77 2215.33 1142.42 2217.26 1142.27C2223.57 1141.81 2236.41 1140.5 2238.3 1140.07C2239.3 1139.88 2240.11 1139.57 2240.11 1139.46C2240.11 1139.31 2237.76 1138.69 2234.88 1138.11C2229.18 1136.92 2223.18 1135.3 2222.68 1134.77C2221.83 1134 2225.84 1129.53 2227.8 1129.03C2228.53 1128.84 2230.72 1128.57 2232.61 1128.42C2234.53 1128.26 2237.3 1128 2238.76 1127.8C2240.26 1127.61 2245.07 1127 2249.49 1126.5C2257.38 1125.61 2259.65 1125.03 2257 1124.61C2251.73 1123.8 2237.22 1121.15 2235.61 1120.69C2233.26 1120.03 2233.18 1119.84 2234.34 1116.45C2235.53 1112.95 2236.22 1112.38 2241.45 1110.53C2251.07 1107.11 2257.15 1103.57 2262.42 1098.22C2266.46 1094.18 2268.73 1090.49 2269.38 1086.91C2270 1083.68 2269.73 1083.37 2267.15 1084.37C2262.73 1086.03 2255.11 1086.22 2245.49 1084.91C2239.49 1084.1 2224.18 1081.29 2223.83 1080.95C2223.64 1080.76 2224.68 1080.14 2226.14 1079.56C2227.57 1078.95 2230.34 1077.83 2232.22 1077.02C2237.34 1074.95 2237.22 1074.95 2239.18 1076.1C2241.15 1077.25 2241.8 1077.1 2240.57 1075.79C2238.99 1074.14 2238.88 1074.22 2247.92 1070.33C2249.76 1069.52 2251.26 1068.71 2251.26 1068.52C2251.26 1068.02 2249.65 1068.33 2243.57 1069.95C2237.34 1071.6 2236.57 1071.71 2235.64 1071.18C2233.26 1069.75 2222.8 1062.75 2221.83 1061.87C2220.76 1060.94 2220.72 1060.83 2221.41 1060.4C2221.8 1060.14 2222.49 1059.64 2222.95 1059.25C2223.76 1058.56 2223.76 1058.56 2222.41 1058.83C2221.68 1058.94 2220.56 1059.33 2219.99 1059.64C2218.91 1060.17 2218.68 1060.1 2213.06 1057.29C2200.06 1050.86 2186.71 1046.79 2172.67 1044.94C2167.71 1044.32 2153.28 1044.21 2147.28 1044.79ZM2191.87 1059.71C2195.44 1060.6 2199.98 1061.67 2201.98 1062.17C2208.14 1063.64 2207.72 1063.91 2193.17 1067.94C2183.44 1070.68 2183.33 1070.68 2178.56 1070.71C2173.56 1070.71 2169.13 1070.02 2168.79 1069.18C2168.67 1068.87 2169.48 1068.1 2170.71 1067.29C2171.82 1066.52 2174.82 1064.17 2177.33 1062.1C2181.71 1058.44 2183.13 1057.67 2184.94 1058.06C2185.17 1058.1 2188.29 1058.83 2191.87 1059.71ZM2221.8 1068.44C2228.95 1071.33 2230.11 1071.87 2230.11 1072.45C2230.11 1072.72 2227.3 1073.14 2218.56 1074.18C2211.37 1075.06 2196.33 1075.75 2195.79 1075.22C2195.6 1075.02 2195.48 1074.68 2195.6 1074.48C2195.71 1074.29 2198.02 1072.98 2200.75 1071.6C2203.45 1070.18 2207.06 1068.25 2208.75 1067.29C2210.76 1066.14 2212.29 1065.52 2213.14 1065.52C2213.91 1065.52 2217.64 1066.79 2221.8 1068.44ZM2192.33 1087.45C2202.18 1089.68 2211.99 1094.6 2215.53 1099.07C2218.18 1102.45 2220.1 1107.15 2220.1 1110.34C2220.1 1111.76 2217.76 1116.8 2215.33 1120.42C2213.33 1123.46 2207.91 1128.84 2204.33 1131.38C2196.02 1137.27 2183.75 1141.65 2170.67 1143.5C2163.78 1144.46 2146.01 1144.42 2137.2 1143.5C2126.62 1142.34 2115.24 1139.92 2106.62 1137.07C2098.81 1134.46 2089.19 1128.53 2085.81 1124.3C2083.69 1121.61 2083.54 1120.65 2084.92 1119.46C2085.54 1118.96 2088.31 1116.49 2091.04 1113.99C2102 1104.14 2108.23 1098.91 2108.58 1099.26C2108.77 1099.45 2109.12 1100.72 2109.35 1102.11C2110.43 1108.99 2112.54 1113.07 2117.74 1118.26C2124.31 1124.8 2131.05 1128.26 2140.89 1130.19C2144.63 1130.92 2154.97 1130.8 2159.05 1130.03C2171.55 1127.53 2182.02 1120.26 2186.67 1110.72C2190.37 1103.18 2190.71 1094.45 2187.56 1089.06C2186.75 1087.72 2186.67 1087.29 2187.06 1086.83C2187.29 1086.53 2187.79 1086.37 2188.14 1086.45C2188.48 1086.53 2190.37 1086.99 2192.33 1087.45ZM2137.7 1088.06C2141.24 1089.83 2142.86 1093.1 2142.2 1097.3C2141.86 1099.84 2139.13 1102.53 2136.09 1103.41C2134.12 1103.99 2133.74 1103.99 2131.85 1103.45C2126.97 1102.03 2124.74 1097.64 2126.43 1092.8C2127.2 1090.6 2128.66 1089.1 2131.05 1087.99C2133.55 1086.79 2135.24 1086.83 2137.7 1088.06Z" fill="white"/>
<path d="M1921.47 1256.79C1918.27 1261.68 1915.04 1269.68 1913.27 1277.3C1912.16 1281.99 1912.27 1291.57 1913.43 1295.76C1915.35 1302.42 1919.43 1307.57 1925 1310.3L1927.54 1311.53H1936.2C1944.28 1311.53 1945.05 1311.61 1947.47 1312.42C1953.05 1314.34 1958.01 1317.61 1965.36 1324.15C1973.71 1331.58 1977.67 1334.42 1982.79 1336.58C1986.75 1338.27 1991.13 1339.15 1995.25 1339.19C2003.1 1339.19 2008.98 1336.31 2020.64 1326.73C2027.49 1321.11 2030.14 1319.34 2036.8 1315.92C2043.11 1312.69 2047.26 1311.34 2051.8 1311.07C2056.38 1310.8 2057.69 1311.42 2060.49 1315.19C2061.61 1316.69 2062.65 1317.84 2062.8 1317.8C2062.96 1317.73 2064.76 1315.88 2066.8 1313.65C2070.84 1309.23 2074.11 1304.69 2076.5 1300.19C2081.81 1290.18 2081.77 1277.91 2076.38 1268.76C2073.73 1264.18 2068.42 1257.68 2066.53 1256.68C2065.84 1256.29 2065.84 1256.33 2066.23 1257.14C2066.5 1257.6 2067.42 1259.1 2068.34 1260.52C2070.53 1263.95 2071.69 1266.26 2073.15 1270.37C2074.27 1273.45 2074.42 1274.41 2074.57 1279.03C2074.77 1283.99 2074.73 1284.37 2073.61 1287.76C2073 1289.68 2071.88 1292.38 2071.11 1293.72C2069.65 1296.3 2064.92 1302.38 2063.88 1302.99C2063.42 1303.3 2062.69 1303.15 2061.19 1302.49C2058.15 1301.22 2053.68 1300.19 2050.92 1300.19C2043.76 1300.19 2029.95 1305.15 2021.02 1310.96C2019.49 1312 2016.02 1314.53 2013.37 1316.69C2005.06 1323.31 2001.75 1325.27 1997.21 1326.23C1990.52 1327.61 1986.56 1325.69 1973.51 1314.88C1963.17 1306.3 1955.74 1302.42 1947.47 1301.3C1943.43 1300.76 1937.16 1301.03 1933.04 1301.88C1930.39 1302.46 1929.93 1302.46 1928.7 1301.95C1926.2 1300.88 1923.85 1298.88 1922.2 1296.34C1920.12 1293.15 1919.43 1291.38 1918.7 1287.26C1917.31 1279.3 1918.39 1269.79 1921.77 1259.75C1922.7 1257.02 1923.31 1254.79 1923.12 1254.79C1922.97 1254.79 1922.2 1255.71 1921.47 1256.79Z" fill="white"/>
<path d="M2011.56 1390.4C2006.71 1394.48 1999.56 1396.94 1992.56 1396.9C1988.79 1396.9 1988.63 1396.86 1984.67 1395.05C1976.36 1391.25 1972.51 1390.4 1965.13 1390.71C1954.9 1391.17 1948.78 1393.21 1930.62 1402.21C1924.35 1405.32 1916.43 1408.71 1912.96 1409.79C1909.62 1410.83 1904.27 1411.21 1902.08 1410.63C1901.19 1410.4 1899.46 1409.44 1898.23 1408.52C1895.08 1406.17 1893.81 1405.59 1891.07 1405.32C1888.34 1405.09 1886.8 1405.63 1885.46 1407.36C1884.3 1408.83 1884.38 1411.36 1885.61 1412.83C1887.38 1414.9 1889.73 1415.6 1896.96 1416.02C1904.69 1416.52 1910.27 1416.13 1921.97 1414.44C1930.27 1413.21 1936.43 1412.36 1942.16 1411.71C1944.16 1411.48 1948.97 1411.36 1953.51 1411.48C1962.55 1411.71 1965.32 1412.21 1971.24 1414.87C1977.13 1417.44 1981.63 1418.94 1986.25 1419.87C1992.17 1421.06 2006.1 1421.17 2011.21 1420.1C2015.75 1419.14 2022.02 1417.37 2026.56 1415.83C2031.3 1414.17 2035.37 1413.67 2043.64 1413.67C2060.34 1413.67 2083.34 1416.02 2093.35 1418.79C2097.42 1419.9 2105.23 1419.98 2108.73 1418.9C2112.39 1417.83 2115.31 1415.79 2116.47 1413.6C2117.66 1411.29 2116.7 1407.59 2114.58 1406.52C2113.04 1405.71 2111.62 1406.02 2105.85 1408.48C2099.08 1411.4 2096.92 1411.9 2092.19 1411.63C2085.38 1411.25 2076.19 1408.4 2061.03 1402.06C2038.87 1392.78 2026.29 1389.05 2016.98 1389.05C2013.21 1389.05 2013.21 1389.05 2011.56 1390.4Z" fill="white"/>
<path d="M2087.23 1422.72C2086.69 1424.91 2084.11 1430.41 2082.42 1432.91C2075.5 1443.14 2064.3 1453.53 2055.26 1458.03C2035.33 1467.96 1994.71 1471.23 1964.47 1465.38C1947.09 1461.99 1934.58 1456.61 1923.47 1447.61C1917.62 1442.87 1911.5 1435.3 1907.35 1427.56C1906 1425.02 1904.81 1423.02 1904.73 1423.1C1904.46 1423.33 1906.58 1428.83 1908.31 1432.33C1916.7 1449.65 1933.24 1462.61 1955.01 1468.88C1976.78 1475.15 2005.56 1476 2029.68 1471.15C2046.07 1467.88 2054.69 1464.53 2062.96 1458.34C2065.96 1456.07 2076.07 1445.99 2078 1443.3C2081 1439.18 2083.69 1434.6 2084.92 1431.72C2086.38 1428.29 2087.92 1422.79 2087.65 1422.06C2087.58 1421.79 2087.35 1422.06 2087.23 1422.72Z" fill="white"/>
<path d="M1983.52 1490.22C1967.21 1491.19 1952.43 1493.92 1945.62 1497.19L1943.32 1498.3L1945.62 1498.11C1946.89 1497.99 1951.39 1497.57 1955.63 1497.15C1967.51 1495.99 1992.02 1495.42 2006.52 1495.96C2013.02 1496.19 2020.41 1496.57 2022.95 1496.8C2033.91 1497.73 2049.26 1500.19 2054.3 1501.8C2055.68 1502.23 2057.07 1502.69 2057.38 1502.76C2058.61 1503.15 2056.34 1501.46 2053.92 1500.15C2046.53 1496.19 2030.06 1491.99 2016.41 1490.61C2011.14 1490.07 1990.33 1489.84 1983.52 1490.22Z" fill="white"/>
<path fill-rule="evenodd" clip-rule="evenodd" d="M2728.89 1102.16C2728.89 1503.53 2403.51 1828.91 2002.14 1828.91C1600.76 1828.91 1275.39 1503.53 1275.39 1102.16C1275.39 700.786 1600.76 375.408 2002.14 375.408C2403.51 375.408 2728.89 700.786 2728.89 1102.16ZM2789.28 1118.68C2789.39 1113.18 2789.45 1107.68 2789.45 1102.16C2789.45 667.338 2436.96 314.846 2002.14 314.846C1567.32 314.846 1214.82 667.338 1214.82 1102.16C1214.82 1107.68 1214.88 1113.18 1214.99 1118.68H1022.13C1022.13 1659.92 1460.89 2098.69 2002.14 2098.69C2543.38 2098.69 2982.15 1659.92 2982.15 1118.68H2789.28Z" fill="white"/>
<path d="M2813.28 1094.82H3598.39L3841.95 877.344H2781.75C2801.65 946.49 2812.61 1019.43 2813.28 1094.82Z" fill="white"/>
<path d="M2977.04 1359.09C2994.29 1288.91 3004.15 1215.82 3005.77 1140.7H3547.01L3302.42 1359.09H2977.04Z" fill="white"/>
<path d="M2964.59 1404.97H3251.04L3002.34 1627.03H2867.96C2908.65 1557.89 2941.29 1483.44 2964.59 1404.97Z" fill="white"/>
<path d="M998.504 1140.7C1000.12 1215.82 1009.99 1288.91 1027.24 1359.09H698.184L453.595 1140.7H998.504Z" fill="white"/>
<path d="M1039.68 1404.97H749.568L998.267 1627.03H1136.31C1095.63 1557.89 1062.99 1483.44 1039.68 1404.97Z" fill="white"/>
<path d="M1222.52 877.344H158.65L402.211 1094.82H1191C1191.67 1019.43 1202.62 946.49 1222.52 877.344Z" fill="white"/>
<path d="M1586.68 1789.49L1624.76 1808.5L1579.05 1900.06L1665.42 1943.18L1649.44 1975.2L1524.99 1913.08L1586.68 1789.49Z" fill="black"/>
<path d="M1752.72 2010.57L1777.75 1874.35L1924.26 1901.27L1918.21 1934.18L1813.58 1914.95L1810.09 1933.98L1909.97 1952.34L1903.96 1985.07L1804.08 1966.7L1800.65 1985.34L1905.29 2004.57L1899.24 2037.48L1752.74 2010.56L1752.72 2010.57Z" fill="black"/>
<path d="M2047.75 1901.1L2088.41 1941.89C2090.61 1944.09 2092.28 1946.88 2093.39 1950.26C2094.49 1953.64 2095.46 1956.63 2096.31 1959.26C2096.56 1959.22 2096.75 1956.91 2096.84 1952.28C2096.95 1947.65 2097.98 1943.74 2099.92 1940.53L2129.97 1891.41L2187.79 1884.59L2119.98 1983.56L2125.58 2031.01L2083.3 2035.98L2077.7 1988.53L1989.89 1907.92L2047.72 1901.1H2047.75Z" fill="black"/>
<path d="M2297.11 1842.91L2363.17 1811.54L2484.26 1906.96L2439.34 1928.28L2417.51 1912.95L2341.32 1949.13L2339.39 1975.74L2294.47 1997.06L2297.1 1842.91H2297.11ZM2346.48 1853.97L2340.53 1856.79L2340.31 1910.01L2387.67 1887.53L2346.48 1853.98V1853.97Z" fill="black"/>
<path d="M1214.66 762.815C1220.19 750.787 1223.18 743.735 1223.68 741.679C1224.18 739.622 1223.13 737.987 1220.56 736.812C1217.45 735.398 1214.9 735.821 1212.88 738.098C1210.88 740.375 1207.45 746.784 1202.63 757.306C1193.09 778.112 1185.56 790.545 1180.03 794.603C1174.5 798.661 1165.76 797.945 1153.81 792.473C1142.75 787.386 1137.3 780.591 1137.46 772.052C1137.61 765.533 1142 752.88 1150.61 734.113C1158.29 717.383 1163.59 707.008 1166.55 702.949C1173.49 693.4 1184.84 692.243 1200.58 699.46L1189.12 724.435C1184.8 722.452 1181.86 722.25 1180.27 723.811C1178.69 725.372 1175.31 731.762 1170.19 742.946C1165.01 754.221 1162.23 760.832 1161.85 762.76C1161.46 764.688 1162.6 766.268 1165.25 767.48C1168.04 768.765 1170.53 768.122 1172.72 765.551C1174.91 762.981 1178.1 757.122 1182.31 747.959C1191.74 727.373 1199.46 714.868 1205.44 710.423C1211.43 705.979 1220.28 706.439 1232 711.819C1242.81 716.777 1248.21 723.296 1248.19 731.34C1248.12 738.263 1243.48 751.797 1234.24 771.924C1227.11 787.441 1222.17 797.339 1219.36 801.655C1215.05 808.284 1210.35 811.993 1205.26 812.765C1200.19 813.554 1192.85 811.736 1183.22 807.329L1194.68 782.354C1199.22 784.429 1202.32 784.668 1203.97 783.052C1205.63 781.436 1209.19 774.678 1214.64 762.797L1214.66 762.815Z" fill="white"/>
<path d="M1195.4 646.795L1210.88 624.097L1236.68 641.671L1270.08 592.658L1244.28 575.084L1259.76 552.387L1333.55 602.667L1318.07 625.364L1289.18 605.678L1255.78 654.691L1284.67 674.377L1269.18 697.075L1195.4 646.795Z" fill="white"/>
<path d="M1353.93 580.055L1286.56 521.475L1304.59 500.742L1371.97 559.323L1353.93 580.055Z" fill="white"/>
<path d="M1329.71 471.328L1379.11 425.786C1389.89 415.851 1398.19 410.636 1404.05 410.103C1411.32 409.406 1419.88 414.382 1429.72 425.052C1439.51 435.666 1443.79 444.535 1442.56 451.679C1441.57 457.592 1435.67 465.525 1424.89 475.442L1395.69 502.363L1410.51 518.431L1390.31 537.052L1329.71 471.31V471.328ZM1380.05 485.395L1409.24 458.474C1411.63 456.27 1412.95 454.085 1413.21 451.918C1413.54 449.328 1412.35 446.555 1409.63 443.599C1406.97 440.697 1404.31 439.283 1401.64 439.357C1399.46 439.449 1397.16 440.587 1394.77 442.773L1365.58 469.694L1380.05 485.395Z" fill="white"/>
<path d="M1551.58 304.324L1595.27 338.242C1595.77 338.646 1596.92 340.225 1598.74 342.98C1600.58 345.735 1601.66 347.02 1602.05 346.836C1602.34 346.689 1602.17 345.679 1601.55 343.788C1600.93 341.915 1600.08 339.417 1599.05 336.296L1597.18 281.021L1638.88 259.719L1679.49 339.234L1655.03 351.721L1626.54 295.932C1626.05 294.959 1625.62 293.673 1625.28 292.076C1624.93 290.478 1624.67 289.523 1624.52 289.211C1624.21 288.623 1623.84 288.421 1623.4 288.66C1623.11 288.807 1622.96 289.431 1622.94 290.515C1622.94 291.598 1622.98 292.59 1623.05 293.49L1625 367.055L1604.98 377.283L1544.31 333.688C1543.37 332.953 1542.53 332.311 1541.78 331.741C1541.02 331.19 1540.51 330.988 1540.22 331.135C1539.77 331.356 1539.68 331.741 1539.94 332.256C1539.98 332.329 1540.86 333.431 1542.6 335.543C1543.36 336.461 1543.91 337.269 1544.24 337.93L1572.74 393.756L1548.28 406.243L1507.67 326.728L1551.6 304.288L1551.58 304.324Z" fill="white"/>
<path d="M1719.7 232.854L1765.13 220.018L1831.92 293.803L1801.04 302.526L1788.79 290.424L1736.4 305.225L1732.3 321.955L1701.41 330.678L1719.7 232.854ZM1749.93 245.213L1745.85 246.37L1739.98 280.214L1772.53 271.014L1749.93 245.213Z" fill="white"/>
<path d="M1977.6 278.782L1932.83 282.914L1879.89 221.34C1879.3 220.385 1878.68 219.375 1878.03 218.31C1877.39 217.245 1876.79 216.731 1876.2 216.786C1876.27 217.612 1876.4 218.438 1876.55 219.265C1878.37 223.617 1879.28 225.839 1879.28 225.912L1884.94 287.321L1857.58 289.837L1849.39 200.919L1894.16 196.788L1946.97 258.251C1947.58 259.279 1948.18 260.308 1948.83 261.355C1949.47 262.383 1950.08 262.879 1950.66 262.824C1950.5 261.997 1950.39 261.171 1950.31 260.345C1949.45 258.159 1948.57 255.937 1947.69 253.678L1942.05 192.399L1969.41 189.883L1977.6 278.8V278.782Z" fill="white"/>
<path d="M2055.06 192.73L2102.07 196.917L2138.19 289.654L2106.22 286.808L2099.1 271.125L2044.87 266.296L2035.08 280.472L2003.11 277.626L2055.06 192.73ZM2078.9 215.042L2074.67 214.657L2057.12 244.186L2090.82 247.197L2078.88 215.042H2078.9Z" fill="white"/>
<path d="M2290.06 270.722L2263.58 263.431C2264.98 258.381 2264.54 255.076 2262.28 253.552C2260.02 252.028 2251.55 249.236 2236.86 245.196C2222.17 241.156 2213.32 239.724 2210.33 240.881C2207.33 242.038 2204.3 248.171 2201.26 259.245C2198.23 270.244 2197.69 276.984 2199.64 279.463C2201.59 281.942 2210 285.229 2224.83 289.306C2239.6 293.364 2248.28 295.366 2250.89 295.311C2253.5 295.256 2255.43 292.942 2256.7 288.351L2223.95 279.353L2229.24 260.089L2288.48 276.378C2283.34 295.091 2279.41 306.733 2276.68 311.342C2272.84 317.788 2266.81 320.855 2258.62 320.488C2252.56 320.212 2239.27 317.237 2218.72 311.581C2191.74 304.162 2176.24 297.588 2172.2 291.859C2168.16 286.129 2169.03 272.797 2174.79 251.844C2180.56 230.891 2186.53 219.028 2192.73 216.237C2199.33 213.298 2216.11 215.539 2243.07 222.958C2268.91 230.065 2284.11 235.849 2288.69 240.293C2293.81 245.233 2294.25 255.37 2290.03 270.704L2290.06 270.722Z" fill="white"/>
<path d="M2303.87 336.92L2341.52 255.826L2428.73 296.3L2419.64 315.894L2357.35 286.971L2352.09 298.302L2411.56 325.902L2402.52 345.386L2343.06 317.785L2337.9 328.877L2400.19 357.8L2391.1 377.394L2303.89 336.92H2303.87Z" fill="white"/>
<path d="M2510.85 346.472L2501.06 400.902C2500.93 401.527 2500.07 403.289 2498.47 406.191C2496.87 409.092 2496.25 410.653 2496.58 410.892C2496.86 411.076 2497.66 410.47 2499.04 409.037C2500.4 407.605 2502.24 405.713 2504.51 403.363L2552.61 376.074L2590.82 403.143L2539.22 475.992L2516.8 460.107L2553.01 408.982C2553.64 408.101 2554.59 407.127 2555.84 406.062C2557.11 404.997 2557.82 404.336 2558.03 404.061C2558.41 403.51 2558.41 403.106 2557.99 402.812C2557.71 402.628 2557.11 402.775 2556.13 403.271C2555.16 403.767 2554.32 404.263 2553.56 404.759L2489.29 440.623L2470.95 427.621L2481.43 353.634C2481.65 352.459 2481.83 351.412 2481.98 350.494C2482.13 349.576 2482.06 349.006 2481.78 348.823C2481.38 348.529 2481.01 348.621 2480.66 349.098C2480.6 349.171 2480.05 350.457 2478.99 352.973C2478.51 354.075 2478.07 354.919 2477.63 355.544L2441.4 406.687L2418.98 390.802L2470.58 317.953L2510.83 346.472H2510.85Z" fill="white"/>
<path d="M2561.61 497.364L2625.57 434.891L2692.76 503.663L2677.3 518.758L2629.3 469.635L2620.37 478.358L2666.19 525.259L2650.82 540.262L2605 493.361L2596.24 501.918L2644.24 551.041L2628.8 566.136L2561.61 497.364Z" fill="white"/>
<path d="M2720.23 691.324L2694.65 654.358L2722.27 577.983C2722.8 577.01 2723.39 575.963 2724 574.879C2724.62 573.796 2724.75 573.006 2724.42 572.529C2723.74 573.006 2723.08 573.521 2722.44 574.053C2719.54 577.781 2718.05 579.672 2717.99 579.709L2667.29 614.802L2651.66 592.215L2725.08 541.402L2750.66 578.369L2723.08 654.56C2722.47 655.588 2721.89 656.635 2721.3 657.7C2720.71 658.765 2720.58 659.536 2720.91 660.014C2721.56 659.463 2722.22 658.967 2722.9 658.49C2724.36 656.653 2725.87 654.817 2727.41 652.925L2778.02 617.906L2793.65 640.493L2720.23 691.306V691.324Z" fill="white"/>
<path d="M2796.99 693.032L2817.98 683.391L2862.31 779.966L2841.32 789.607L2824.91 753.852L2764.64 781.527L2753.18 756.552L2813.43 728.878L2796.96 693.013L2796.99 693.032Z" fill="white"/>
<path d="M1465.33 1817.61C1481.2 1817.61 1494.06 1804.75 1494.06 1788.88C1494.06 1773.01 1481.2 1760.15 1465.33 1760.15C1449.46 1760.15 1436.6 1773.01 1436.6 1788.88C1436.6 1804.75 1449.46 1817.61 1465.33 1817.61Z" fill="black"/>
<path d="M2527.17 1817.61C2543.04 1817.61 2555.9 1804.75 2555.9 1788.88C2555.9 1773.01 2543.04 1760.15 2527.17 1760.15C2511.3 1760.15 2498.44 1773.01 2498.44 1788.88C2498.44 1804.75 2511.3 1817.61 2527.17 1817.61Z" fill="black"/>
</svg>
